<!-- Generated by IcoMoon.io -->
<svg version="1.1" xmlns="http://www.w3.org/2000/svg" width="20" height="20" viewBox="0 0 20 20">
<title>address</title>
<path d="M11.1 6.34c-0.166-0.141-0.383-0.227-0.62-0.227s-0.454 0.086-0.621 0.228l0.001-0.001-2.62 2.28c-0.205 0.174-0.336 0.432-0.34 0.719v4.081c0 0.265 0.215 0.48 0.48 0.48v0h1.9c0.133 0 0.24-0.107 0.24-0.24v0-1.66c0-0.133 0.107-0.24 0.24-0.24v0h1.44c0.124 0.011 0.22 0.114 0.22 0.239 0 0 0 0.001 0 0.001v-0 1.66c0 0.133 0.107 0.24 0.24 0.24v0h1.92c0.256-0.011 0.46-0.222 0.46-0.48 0-0 0-0 0-0v0-4.080c0-0.001 0-0.003 0-0.004 0-0.284-0.123-0.539-0.319-0.715l-0.001-0.001zM15.96 0h-11.2c-1.58 0-2.86 1.28-2.86 2.86v0 0.94h-0.24c-0.53 0-0.96 0.43-0.96 0.96s0.43 0.96 0.96 0.96v0h0.24v3.32h-0.24c-0.522 0.011-0.94 0.437-0.94 0.96 0 0 0 0 0 0v-0c0 0 0 0 0 0 0 0.523 0.418 0.949 0.939 0.96l0.001 0h0.24v3.32h-0.24c-0.467 0.070-0.822 0.469-0.822 0.95s0.354 0.88 0.817 0.949l0.005 0.001h0.24v0.96c0 1.58 1.28 2.86 2.86 2.86v0h11.2c1.836-0.011 3.32-1.502 3.32-3.34 0-0 0-0 0-0v0-13.32c0-0 0-0 0-0 0-1.838-1.484-3.329-3.319-3.34h-0.001zM17.38 16.66c0 0.006 0 0.013 0 0.020 0 0.784-0.636 1.42-1.42 1.42-0 0-0 0-0 0h-11.2c-0.522-0.011-0.94-0.437-0.94-0.96 0-0 0-0 0-0v0-0.96h0.22c0.467-0.070 0.822-0.469 0.822-0.95s-0.354-0.88-0.817-0.949l-0.005-0.001h-0.22v-3.32h0.22c0.53 0 0.96-0.43 0.96-0.96v0 0c0-0.53-0.43-0.96-0.96-0.96v0h-0.22v-3.32h0.22c0.53 0 0.96-0.43 0.96-0.96s-0.43-0.96-0.96-0.96v0h-0.22v-0.94c0-0 0-0 0-0 0-0.523 0.418-0.949 0.939-0.96l0.001-0h11.2c0 0 0 0 0 0 0.784 0 1.42 0.636 1.42 1.42 0 0.007-0 0.014-0 0.021l0-0.001z"></path>
</svg>
