<svg width="20" height="20" viewBox="0 0 20 20" fill="none" xmlns="http://www.w3.org/2000/svg">
<path d="M10 20C4.5 20 0 15.5 0 10C0 4.5 4.5 0 10 0C15.5 0 20 4.5 20 10C20 15.5 15.5 20 10 20ZM11.375 5.875L11.5 5.6875L11.625 5.5L11.875 5.1875C11.875 5.125 11.875 5.0625 11.8125 5.0625C11.75 5 11.6875 5.0625 11.6875 5.0625L11.1875 5.8125C10.8125 5.6875 10.4375 5.5625 9.9375 5.5625C9.4375 5.5625 9.125 5.625 8.75 5.75L8.625 5.625L8.5 5.4375L8.25 5.0625C8.1875 5 8.125 5 8.0625 5C8 5 8 5.0625 8.0625 5.125L8.3125 5.5L8.4375 5.6875L8.5625 5.875C7.6875 6.25 7.125 7.0625 7.125 7.875H12.9375C12.875 7 12.25 6.25 11.375 5.875ZM8.75 7.0625C8.5625 7.0625 8.4375 6.9375 8.4375 6.75C8.4375 6.5625 8.5625 6.4375 8.75 6.4375C8.9375 6.4375 9.0625 6.5625 9.0625 6.75C9.0625 6.9375 8.875 7.0625 8.75 7.0625ZM11.25 7.0625C11.0625 7.0625 10.9375 6.9375 10.9375 6.75C10.9375 6.5625 11.0625 6.4375 11.25 6.4375C11.4375 6.4375 11.5625 6.5625 11.5625 6.75C11.5625 6.9375 11.375 7.0625 11.25 7.0625ZM7.125 8.25L7.0625 12.6875C7.0625 13.0625 7.3125 13.3125 7.75 13.3125H8.1875C8.1875 13.375 8.1875 13.4375 8.1875 13.5V14.75C8.1875 15.0625 8.4375 15.375 8.8125 15.375C9.1875 15.375 9.4375 15.125 9.4375 14.75V13.5C9.4375 13.4375 9.4375 13.375 9.4375 13.3125H10.625C10.625 13.375 10.5625 13.4375 10.5625 13.5V14.75C10.5625 15.0625 10.8125 15.375 11.1875 15.375C11.5625 15.375 11.8125 15.125 11.8125 14.75V13.5C11.8125 13.4375 11.8125 13.375 11.75 13.3125H12.25C12.625 13.3125 12.9375 13.0625 12.9375 12.6875V8.25C12.875 8.25 7.125 8.25 7.125 8.25ZM6.0625 8.25C5.75 8.25 5.4375 8.5 5.4375 8.875V11.4375C5.4375 11.75 5.6875 12.0625 6.0625 12.0625C6.4375 12.0625 6.6875 11.8125 6.6875 11.4375V8.875C6.6875 8.5625 6.375 8.25 6.0625 8.25ZM13.9375 8.25C13.5625 8.25 13.3125 8.5 13.3125 8.875V11.4375C13.3125 11.75 13.5625 12.0625 13.9375 12.0625C14.25 12.0625 14.5625 11.8125 14.5625 11.4375V8.875C14.5625 8.5625 14.25 8.25 13.9375 8.25Z" fill="black"/>
</svg>
