<svg width="20" height="20" viewBox="0 0 20 20" fill="none" xmlns="http://www.w3.org/2000/svg">
<path d="M0 10C0 4.5 4.5 0 10 0C15.5 0 20 4.5 20 10C20 15.5 15.5 20 10 20C4.5 20 0 15.5 0 10ZM6.625 15L7.3125 13.8125H5.3125L5.125 14.125C4.875 14.5625 5 15.0625 5.4375 15.3125C5.5625 15.375 5.6875 15.4375 5.875 15.4375C6.1875 15.4375 6.4375 15.25 6.625 15ZM5 13.125H11.5L10.5 11.375H8.6875L11.625 6.25C11.75 6.0625 11.75 5.8125 11.75 5.625C11.75 5.4375 11.5 5.25 11.25 5.125C10.8125 4.875 10.3125 5 10.0625 5.4375L10 5.6875L9.875 5.4375C9.625 5.0625 9.125 4.875 8.6875 5.125C8.25 5.3125 8.125 5.875 8.375 6.25L9 7.375L6.6875 11.4375H5C4.5 11.4375 4.125 11.8125 4.125 12.3125C4.1875 12.75 4.5625 13.125 5 13.125ZM14.9375 13.125C15.375 13.125 15.75 12.75 15.75 12.25C15.75 11.75 15.375 11.375 14.9375 11.375H13.25L11.375 8.0625L10.375 9.8125L13.3125 15C13.4375 15.1875 13.5625 15.3125 13.8125 15.375C13.875 15.375 14 15.4375 14.0625 15.4375C14.1875 15.4375 14.3125 15.375 14.5 15.3125C14.875 15.0625 15.0625 14.5625 14.8125 14.125L14.25 13.125H14.9375Z" fill="black"/>
</svg>
