<!-- Generated by IcoMoon.io -->
<svg version="1.1" xmlns="http://www.w3.org/2000/svg" width="20" height="20" viewBox="0 0 20 20">
<title>appstore-fill</title>
<path d="M4.24 18.6c-0.28 0.48-0.78 0.74-1.28 0.74-0.24 0-0.5-0.060-0.74-0.2-0.7-0.4-0.94-1.32-0.52-2.020l0.28-0.52h3.38l-1.12 2zM1.46 15.42c-0.8 0-1.46-0.66-1.46-1.48s0.66-1.48 1.46-1.48h2.9l3.94-6.94-1.060-1.88c-0.4-0.7-0.16-1.62 0.54-2.020v0c0.7-0.42 1.6-0.18 2 0.54l0.22 0.4 0.22-0.4c0.42-0.72 1.3-0.96 2-0.54 0.34 0.2 0.6 0.52 0.7 0.9s0.040 0.78-0.16 1.12l-5.020 8.82h3.16l1.7 2.96h-11.14zM18.54 15.42h-1.2l0.96 1.7c0.42 0.7 0.18 1.62-0.52 2.020-0.24 0.14-0.48 0.2-0.74 0.2-0.12 0-0.26-0.020-0.38-0.040-0.38-0.12-0.7-0.36-0.9-0.7l-5.080-8.92 1.7-2.98 3.28 5.76h2.88c0.8 0 1.46 0.66 1.46 1.48s-0.66 1.48-1.46 1.48z"></path>
</svg>
