<!-- Generated by IcoMoon.io -->
<svg version="1.1" xmlns="http://www.w3.org/2000/svg" width="20" height="20" viewBox="0 0 20 20">
<title>back-thick</title>
<path d="M18.4 8.86h-14.080l4.56-4.56c0.237-0.206 0.386-0.509 0.386-0.846 0-0.619-0.501-1.12-1.12-1.12-0.337 0-0.639 0.149-0.845 0.384l-0.001 0.001-6.5 6.48c-0.103 0.105-0.184 0.232-0.238 0.373l-0.002 0.007c-0.052 0.124-0.082 0.269-0.082 0.42s0.030 0.296 0.084 0.427l-0.003-0.007c0.056 0.148 0.137 0.275 0.24 0.38l-0-0 6.5 6.48c0.202 0.202 0.482 0.326 0.79 0.326s0.588-0.125 0.79-0.326l-0 0c0.202-0.202 0.326-0.482 0.326-0.79s-0.125-0.588-0.326-0.79l-4.56-4.56h14.080c0.63 0 1.14-0.51 1.14-1.14s-0.51-1.14-1.14-1.14v0z"></path>
</svg>
