<svg width="20" height="20" viewBox="0 0 20 20" fill="none" xmlns="http://www.w3.org/2000/svg">
<g clip-path="url(#clip0)">
<path d="M4.52504 15H15.3584C15.8395 14.9978 16.3003 14.8057 16.6405 14.4655C16.9807 14.1253 17.1728 13.6645 17.175 13.1833C17.1787 12.8884 17.1118 12.5968 16.9799 12.333C16.848 12.0692 16.6549 11.8407 16.4167 11.6666C16.1253 11.4744 15.8855 11.2135 15.7184 10.9069C15.5513 10.6003 15.462 10.2574 15.4584 9.90832V7.61665C15.3689 6.2921 14.7801 5.05085 13.811 4.14354C12.8419 3.23623 11.5645 2.73045 10.237 2.72834C8.90942 2.72622 7.6305 3.22793 6.65848 4.13215C5.68646 5.03636 5.09375 6.27573 5.00004 7.59998V9.87498C4.99874 10.2301 4.90984 10.5794 4.74122 10.8919C4.5726 11.2045 4.32946 11.4706 4.03337 11.6666V11.6666L3.59171 11.9666C3.30522 12.166 3.08854 12.4502 2.97223 12.7793C2.85592 13.1084 2.84584 13.4656 2.94342 13.8007C3.04101 14.1358 3.24132 14.4318 3.51612 14.647C3.79091 14.8622 4.12632 14.9856 4.47504 15H4.52504ZM12.8584 15.7167C12.6878 16.2674 12.3454 16.7491 11.8813 17.0913C11.4172 17.4334 10.8558 17.618 10.2792 17.618C9.70263 17.618 9.14119 17.4334 8.67709 17.0913C8.21299 16.7491 7.8706 16.2674 7.70004 15.7167V15.7167H12.8584Z" fill="black"/>
<path d="M14.5084 3.12501C14.3514 3.12586 14.1975 3.08238 14.0642 2.99957C13.9309 2.91677 13.8236 2.798 13.7548 2.65695C13.6861 2.51589 13.6585 2.35828 13.6753 2.20226C13.6922 2.04623 13.7527 1.89813 13.85 1.77501L15 0.316674C15.1363 0.143703 15.3355 0.0317092 15.5542 0.00516409C15.7728 -0.021381 15.993 0.0396811 16.1667 0.175008C16.2536 0.24257 16.3262 0.326663 16.3803 0.422432C16.4345 0.518201 16.4692 0.623751 16.4824 0.732991C16.4955 0.842231 16.4869 0.952998 16.4571 1.0589C16.4272 1.1648 16.3767 1.26374 16.3084 1.35001L15.1584 2.80834C15.0808 2.90655 14.982 2.98602 14.8695 3.04084C14.757 3.09566 14.6335 3.12443 14.5084 3.12501Z" fill="black"/>
<path d="M16.55 6.04168C16.3581 6.04131 16.1721 5.9747 16.0236 5.85309C15.8751 5.73148 15.7731 5.56234 15.7349 5.37423C15.6967 5.18613 15.7246 4.99061 15.8139 4.8207C15.9032 4.65079 16.0484 4.51691 16.225 4.44168L17.8917 3.71668C17.9933 3.66249 18.1051 3.62996 18.22 3.62115C18.3349 3.61235 18.4503 3.62745 18.559 3.66552C18.6678 3.70358 18.7674 3.76378 18.8517 3.84231C18.936 3.92084 19.0031 4.01599 19.0488 4.12176C19.0944 4.22753 19.1177 4.34162 19.117 4.45683C19.1164 4.57203 19.0918 4.68584 19.0449 4.79108C18.9981 4.89632 18.9299 4.9907 18.8447 5.06826C18.7595 5.14582 18.6592 5.20487 18.55 5.24168L16.8417 5.97502C16.7488 6.01321 16.6502 6.03573 16.55 6.04168V6.04168Z" fill="black"/>
<path d="M18.8251 9.79167H18.675L16.85 9.45834C16.629 9.41745 16.4333 9.29044 16.3059 9.10525C16.1786 8.92006 16.13 8.69185 16.1709 8.47084C16.2118 8.24982 16.3388 8.0541 16.524 7.92674C16.7092 7.79937 16.9374 7.75078 17.1584 7.79167L18.9834 8.13334C19.2044 8.15433 19.408 8.26227 19.5495 8.43339C19.6909 8.60452 19.7585 8.82482 19.7376 9.04584C19.7166 9.26685 19.6086 9.47047 19.4375 9.61191C19.2664 9.75334 19.0461 9.821 18.8251 9.8V9.79167Z" fill="black"/>
<path d="M5.49169 3.12501C5.36652 3.12443 5.24309 3.09566 5.13056 3.04084C5.01803 2.98602 4.9193 2.90655 4.84169 2.80834L3.69169 1.35001C3.62339 1.26374 3.57286 1.1648 3.54299 1.0589C3.51313 0.952998 3.50454 0.842231 3.51771 0.732991C3.53088 0.623751 3.56555 0.518201 3.61973 0.422432C3.67391 0.326663 3.74651 0.24257 3.83336 0.175008C4.00708 0.0396811 4.22731 -0.021381 4.44592 0.00516409C4.66452 0.0317092 4.86374 0.143703 5.00002 0.316674L6.15002 1.77501C6.24732 1.89813 6.30788 2.04623 6.32472 2.20226C6.34156 2.35828 6.314 2.51589 6.24522 2.65695C6.17643 2.798 6.06922 2.91677 5.93591 2.99957C5.8026 3.08238 5.64862 3.12586 5.49169 3.12501V3.12501Z" fill="black"/>
<path d="M3.45005 6.04168C3.33854 6.0396 3.22837 6.017 3.12505 5.97502L1.45838 5.24168C1.34922 5.20487 1.24887 5.14582 1.16368 5.06826C1.0785 4.9907 1.01031 4.89632 0.963443 4.79108C0.916572 4.68584 0.892032 4.57203 0.891371 4.45683C0.89071 4.34162 0.913944 4.22753 0.959604 4.12176C1.00526 4.01599 1.07236 3.92084 1.15665 3.84231C1.24095 3.76378 1.34061 3.70358 1.44934 3.66552C1.55808 3.62745 1.67352 3.61235 1.78839 3.62115C1.90326 3.62996 2.01505 3.66249 2.11672 3.71668L3.78338 4.44168C3.95997 4.51691 4.10518 4.65079 4.19446 4.8207C4.28375 4.99061 4.31165 5.18613 4.27344 5.37423C4.23523 5.56234 4.13326 5.73148 3.98476 5.85309C3.83626 5.9747 3.65032 6.04131 3.45838 6.04168H3.45005Z" fill="black"/>
<path d="M1.17504 9.79164C1.06561 9.80204 0.955198 9.79078 0.850114 9.7585C0.745031 9.72623 0.647334 9.67357 0.5626 9.60354C0.391474 9.46211 0.28354 9.25849 0.262543 9.03748C0.241547 8.81646 0.309208 8.59616 0.450642 8.42503C0.592076 8.25391 0.795696 8.14597 1.01671 8.12498L2.84171 7.78331C3.06272 7.74242 3.29093 7.79101 3.47612 7.91837C3.66131 8.04574 3.78832 8.24146 3.82921 8.46248C3.8701 8.68349 3.82151 8.91169 3.69414 9.09689C3.56678 9.28208 3.37106 9.40909 3.15004 9.44998L1.32504 9.78331L1.17504 9.79164Z" fill="black"/>
</g>
<defs>
<clipPath id="clip0">
<rect width="20" height="20" fill="white"/>
</clipPath>
</defs>
</svg>
