<svg width="20" height="20" viewBox="0 0 20 20" fill="none" xmlns="http://www.w3.org/2000/svg">
<path fill-rule="evenodd" clip-rule="evenodd" d="M1.52334 3.40478C1.52334 2.37727 2.36169 1.53339 3.38247 1.53339H3.5135C4.30181 1.53339 4.97951 2.14266 4.97951 3.00907V8.83759H1.52334V3.40478ZM4.97951 10.371H0.76167C0.341011 10.371 0 10.0277 0 9.60429V3.40478C0 1.5304 1.52037 0 3.38247 0H3.5135H5.74119H16.6175C18.4796 0 20 1.5304 20 3.40478V16.5952C20 18.4696 18.4796 20 16.6175 20H8.36198C6.49988 20 4.97951 18.4696 4.97951 16.5952V10.371ZM6.50285 9.60826V16.5952C6.50285 17.6227 7.3412 18.4666 8.36198 18.4666H16.6175C17.6383 18.4666 18.4766 17.6227 18.4766 16.5952V3.40478C18.4766 2.37727 17.6383 1.53339 16.6175 1.53339H6.50286V9.60429L6.50285 9.60826ZM8.51758 5.73335C8.51758 5.30991 8.85859 4.96665 9.27925 4.96665H15.5692C15.9898 4.96665 16.3308 5.30991 16.3308 5.73335C16.3308 6.15678 15.9898 6.50004 15.5692 6.50004H9.27925C8.85859 6.50004 8.51758 6.15678 8.51758 5.73335ZM9.27925 8.99165C8.85859 8.99165 8.51758 9.33491 8.51758 9.75834C8.51758 10.1818 8.85859 10.525 9.27925 10.525H15.5692C15.9898 10.525 16.3308 10.1818 16.3308 9.75834C16.3308 9.33491 15.9898 8.99165 15.5692 8.99165H9.27925Z" fill="white"/>
</svg>
