<svg xmlns="http://www.w3.org/2000/svg" width="20" height="20" viewBox="0 0 20 20" fill="none">
	<path d="M0.867245 1.73449C1.34621 1.73449 1.73449 1.34621 1.73449 0.867245C1.73449 0.388279 1.34621 0 0.867245 0C0.388278 0 0 0.388279 0 0.867245C0 1.34621 0.388278 1.73449 0.867245 1.73449Z" fill="#DBE8FF"/>
	<path d="M13.4962 10.461L11.5449 9.26853L9.91879 10.461L8.29271 9.26853L6.44981 10.461L6.01619 10.1358C5.69097 9.81056 5.58257 9.37694 5.58257 8.94331V8.50969C5.58257 8.18448 5.58257 7.85926 5.69097 7.53404L6.77503 4.49868C6.99184 3.73984 6.01619 3.84825 6.01619 3.84825H4.06489C3.73967 3.84825 3.41445 4.06506 3.30605 4.49868L2.22199 7.53404C2.11359 7.85926 2.11359 8.18448 2.11359 8.50969V8.94331C2.11359 9.59375 2.54721 10.2442 3.08924 10.461L2.98083 10.5694V15.8813C2.98083 16.6401 3.63127 17.2906 4.49851 17.2906H13.171C13.9298 17.2906 14.5802 16.6401 14.5802 15.8813V15.7729V9.26853L13.4962 10.461Z" fill="#DBE8FF"/>
	<path d="M17.2362 20H1.62581C1.3006 20 1.08379 19.7832 1.08379 19.458C1.08379 19.1328 1.3006 18.916 1.62581 18.916H17.2362C17.5614 18.916 17.7783 19.1328 17.7783 19.458C17.7783 19.7832 17.5614 20 17.2362 20Z" fill="#DBE8FF"/>
	<path d="M18.6453 1.08406C18.9447 1.08406 19.1874 0.841382 19.1874 0.542028C19.1874 0.242674 18.9447 0 18.6453 0C18.346 0 18.1033 0.242674 18.1033 0.542028C18.1033 0.841382 18.346 1.08406 18.6453 1.08406Z" fill="#DBE8FF"/>
	<path d="M18.9168 6.77344L17.7243 3.19606C17.5075 2.54562 16.9655 2.112 16.2067 2.112H14.7974C14.4722 2.112 14.2554 2.32881 14.2554 2.65403C14.2554 2.97924 14.4722 3.19606 14.7974 3.19606H16.2067C16.4235 3.19606 16.6403 3.30446 16.6403 3.52127L17.9411 7.09866C18.0496 7.42388 18.0496 7.74909 18.0496 8.07431V8.61634C18.0496 9.26677 17.6159 9.8088 16.9655 9.91721C16.3151 10.0256 15.773 9.59199 15.6646 9.04996C15.5562 8.83315 15.3394 8.61634 15.1226 8.61634C14.9058 8.61634 14.5806 8.83315 14.5806 9.04996C14.4722 9.48359 14.1469 9.8088 13.7133 9.91721C13.0629 10.134 12.4125 9.7004 12.3041 9.04996C12.1956 8.83315 11.9788 8.61634 11.762 8.61634C11.5452 8.61634 11.22 8.83315 11.22 9.04996C11.1116 9.59199 10.5696 9.91721 10.0275 9.91721C9.4855 9.91721 8.94348 9.48359 8.83507 8.94156C8.72666 8.72475 8.50985 8.50793 8.29304 8.50793C7.96782 8.50793 7.75101 8.72475 7.75101 8.94156C7.64261 9.37518 7.31739 9.7004 6.88377 9.8088C6.23333 9.91721 5.5829 9.59199 5.47449 8.94156C5.36609 8.72475 5.14928 8.50793 4.93246 8.50793C4.71565 8.50793 4.39044 8.72475 4.39044 8.94156C4.28203 9.48359 3.74 9.91721 3.08957 9.8088C2.43913 9.7004 2.00551 9.15837 2.00551 8.50793V7.96591C2.00551 7.64069 2.00551 7.31547 2.11392 7.09866L3.19797 3.52127C3.19797 3.30446 3.41479 3.19606 3.6316 3.19606H12.6293C12.9545 3.19606 13.1713 2.97924 13.1713 2.65403C13.1713 2.32881 12.9545 2.112 12.6293 2.112H3.6316C2.98116 2.112 2.33073 2.54562 2.22232 3.19606L0.921455 6.77344C0.813049 7.20707 0.813049 7.64069 0.813049 8.07431V8.61634C0.813049 9.7004 1.46348 10.676 2.54754 10.8929V15.8795C2.54754 17.072 3.52319 18.0476 4.71565 18.0476H15.231C16.4235 18.0476 17.3991 17.072 17.3991 15.8795V10.8929C18.3748 10.5676 19.1336 9.7004 19.1336 8.61634V8.07431C19.0252 7.64069 19.0252 7.20707 18.9168 6.77344ZM15.1226 16.9636H4.60725C3.95681 16.9636 3.52319 16.53 3.52319 15.8795V10.8929C3.95681 10.7845 4.39044 10.5676 4.71565 10.134C4.82406 10.3508 4.93246 10.3508 4.93246 10.4592C5.90812 11.3265 7.31739 11.2181 8.18464 10.2424C8.61826 10.7845 9.26869 11.0013 9.91913 11.0013C10.5696 11.0013 11.22 10.676 11.6536 10.2424C12.0872 10.7845 12.7377 11.0013 13.3881 11.0013C14.0385 11.0013 14.689 10.676 15.1226 10.2424C15.4478 10.5676 15.8814 10.8929 16.3151 11.0013V15.9879C16.2067 16.53 15.773 16.9636 15.1226 16.9636Z" fill="#1148A6"/>
</svg>