<svg id="Layer_1" data-name="Layer 1" xmlns="http://www.w3.org/2000/svg" viewBox="0 0 20 20"><path d="M10,0A10,10,0,1,0,20,10,10,10,0,0,0,10,0Zm5.49,11.42h0a.74.74,0,0,1-.21.56.7.7,0,0,1-.56.2H13a.7.7,0,0,1-.56-.2h0a.68.68,0,0,1-.21-.56,7.07,7.07,0,0,0-.06-1.05h0a.16.16,0,0,0,0-.13h0l0,0,0,0,0,0h0a4.74,4.74,0,0,0-1.17-.22h0a9.05,9.05,0,0,0-1.7,0h0A4.74,4.74,0,0,0,8,10.12h0l0,0,0,0,0,0h0a.16.16,0,0,0,0,.13h0a7.07,7.07,0,0,0-.06,1.05.68.68,0,0,1-.21.56h0a.7.7,0,0,1-.56.2H5.28a.7.7,0,0,1-.56-.2.74.74,0,0,1-.21-.56h0c0-.36,0-.7,0-1.07a1.2,1.2,0,0,1,.3-.86h0l.1-.11h0A3.55,3.55,0,0,1,6.1,8.59a9,9,0,0,1,3.07-.75l.83,0,.83,0a9,9,0,0,1,3.07.75,3.55,3.55,0,0,1,1.18.79h0l.1.11h0a1.2,1.2,0,0,1,.3.86C15.51,10.72,15.49,11.06,15.49,11.42Z"/></svg>