<!-- Generated by IcoMoon.io -->
<svg version="1.1" xmlns="http://www.w3.org/2000/svg" width="20" height="20" viewBox="0 0 20 20">
<title>call</title>
<path d="M15.24 13.64c-0.26-0.3-0.64-0.48-1.060-0.48s-0.8 0.18-1.060 0.48v0c-0.5 0.5-0.96 0.96-1.48 1.48-0.060 0.080-0.14 0.14-0.24 0.14-0.060 0-0.12-0.020-0.18-0.060v0c-0.3-0.18-0.64-0.32-0.94-0.5-1.44-0.94-2.66-2.060-3.68-3.34l-0.020-0.040c-0.54-0.62-1-1.32-1.36-2.060l-0.020-0.060c-0.020-0.040-0.040-0.1-0.040-0.16 0-0.1 0.040-0.18 0.12-0.24v0c0.5-0.48 0.94-0.94 1.46-1.46 0.32-0.26 0.5-0.64 0.5-1.080s-0.18-0.82-0.5-1.080v0l-1.16-1.16c-0.4-0.4-0.82-0.82-1.2-1.2-0.26-0.3-0.64-0.48-1.060-0.48s-0.8 0.18-1.060 0.48v0c-0.5 0.5-0.96 0.94-1.48 1.48-0.46 0.4-0.74 0.98-0.78 1.62v0c0 0.080 0 0.18 0 0.28 0 0.98 0.2 1.9 0.56 2.74l-0.020-0.040c0.8 2.040 1.88 3.8 3.24 5.34l-0.020-0.020c1.76 2.12 3.96 3.86 6.44 5.080l0.1 0.060c1.060 0.56 2.3 0.94 3.6 1.060h0.040c0.1 0 0.2 0.020 0.32 0.020 0.78 0 1.48-0.34 1.96-0.88v0c0.42-0.48 0.9-0.92 1.36-1.38 0.3-0.26 0.5-0.64 0.5-1.060s-0.2-0.82-0.5-1.080v0c-0.78-0.82-1.58-1.6-2.34-2.4zM14.68 10.26l1.060-0.18c0.12-0.020 0.2-0.12 0.2-0.24 0-0.020 0-0.040 0-0.060v0c-0.6-2.74-2.76-4.86-5.5-5.36h-0.040c0 0-0.020 0-0.040 0-0.12 0-0.22 0.080-0.24 0.2v0l-0.14 1.080c0 0.020 0 0.020 0 0.040 0 0.1 0.080 0.2 0.18 0.22v0c1.12 0.2 2.080 0.72 2.82 1.48v0c0.7 0.7 1.2 1.6 1.42 2.6l0.020 0.040c0.020 0.1 0.1 0.18 0.22 0.18 0 0 0.020 0 0.040 0v0zM16.86 3.62c-1.64-1.66-3.8-2.8-6.2-3.2h-0.060c0 0-0.020 0-0.040 0-0.12 0-0.22 0.080-0.24 0.2v0l-0.14 1.080c0 0 0 0.020 0 0.020 0 0.12 0.080 0.22 0.2 0.24v0c4.080 0.7 7.26 3.8 8.080 7.78v0.060c0.020 0.12 0.12 0.2 0.22 0.2 0.020 0 0.040 0 0.060-0.020v0l1.060-0.18c0.12-0.020 0.2-0.12 0.2-0.24 0-0.020 0-0.020 0-0.040v0c-0.46-2.32-1.58-4.34-3.14-5.9v0z"></path>
</svg>
