<!-- Generated by IcoMoon.io -->
<svg version="1.1" xmlns="http://www.w3.org/2000/svg" width="20" height="20" viewBox="0 0 20 20">
<title>camera-line</title>
<path d="M10 7.5c-0.020 0-0.040 0-0.060 0-2.3 0-4.18 1.86-4.22 4.16v0c0 2.38 1.92 4.28 4.28 4.28s4.28-1.9 4.28-4.28v0c-0.040-2.3-1.9-4.16-4.22-4.16-0.020 0-0.040 0-0.060 0v0zM10 14.4c0 0 0 0 0 0-1.54 0-2.8-1.2-2.86-2.74v0c0.040-1.52 1.28-2.74 2.8-2.74 0.020 0 0.040 0 0.060 0v0c0.020 0 0.040 0 0.060 0 1.52 0 2.76 1.22 2.8 2.74v0c-0.060 1.54-1.32 2.74-2.86 2.74 0 0 0 0 0 0v0zM16.2 7.74c-0.54 0-0.96 0.42-0.96 0.96s0.42 0.94 0.96 0.94c0.52 0 0.94-0.42 0.94-0.94v0c0-0.54-0.42-0.96-0.94-0.96v0zM15.82 4.76h-1.080l-0.86-1.72c-0.4-0.88-1.28-1.48-2.3-1.5v0h-3.36c-1.1 0.040-2.040 0.74-2.4 1.72v0.020l-0.6 1.48h-1.18c-2.24 0-4.040 1.8-4.040 4.040v6.3c0 2.3 1.88 4.18 4.2 4.18v0h11.62c2.3 0 4.18-1.88 4.18-4.18v-6.12c0 0 0-0.020 0-0.020 0-2.32-1.88-4.2-4.18-4.2v0zM18.58 15.1c0 1.52-1.24 2.76-2.76 2.76v0h-11.62c-1.54 0-2.78-1.24-2.78-2.76v-6.3c0.020-1.44 1.18-2.62 2.62-2.62 0 0 0 0 0 0h1.68c0.3 0 0.56-0.18 0.66-0.44v0l0.76-1.9c0.16-0.46 0.58-0.8 1.080-0.82v0h3.36c0.46 0.020 0.84 0.3 1.020 0.7v0l1.040 2.1c0.12 0.24 0.36 0.4 0.64 0.4 0 0 0 0 0 0h1.54c1.52 0 2.76 1.24 2.76 2.76v0z"></path>
</svg>
