<!-- Generated by IcoMoon.io -->
<svg version="1.1" xmlns="http://www.w3.org/2000/svg" width="20" height="20" viewBox="0 0 20 20">
<title>commuities-3-face</title>
<path d="M16.3 11.36c0 0 0.020 0 0.020 0 1.38 0 2.5-1.12 2.5-2.5s-1.12-2.5-2.5-2.5c-1.38 0-2.5 1.12-2.5 2.5 0 0 0 0 0 0.020v0c0 1.36 1.1 2.48 2.48 2.48v0zM16.3 7.8c0 0 0.020 0 0.020 0 0.58 0 1.080 0.48 1.080 1.080s-0.5 1.060-1.080 1.060c-0.6 0-1.080-0.48-1.080-1.060v0c0-0.020 0-0.020 0-0.020 0-0.58 0.48-1.060 1.060-1.060 0 0 0 0 0 0v0zM18.7 13.16c-0.86-0.82-2.040-1.32-3.34-1.32-0.080 0-0.16 0-0.24 0h-0.58c-1.16-0.9-2.62-1.46-4.22-1.46-0.1 0-0.22 0-0.32 0h0.020c-0.080 0-0.18 0-0.26 0-1.64 0-3.14 0.56-4.34 1.5l0.020-0.020c-0.020 0-0.060 0-0.080 0s-0.060 0-0.080 0v0h-0.38c-0.080 0-0.14 0-0.22 0-1.32 0-2.5 0.5-3.38 1.32v0c-0.8 0.84-1.3 1.96-1.3 3.22 0 0.080 0 0.14 0 0.22v-0.020c0 0.020 0 0.020 0 0.020 0 1.2 0.96 2.16 2.16 2.18h1.24c0.48 0.94 1.44 1.6 2.54 1.62v0h8.12c1.12-0.040 2.080-0.7 2.54-1.66v0h1.24c1.18-0.020 2.14-0.98 2.16-2.16v0c0-0.060 0-0.14 0-0.22 0-1.26-0.48-2.38-1.3-3.22v0zM3.1 17.32h-0.96c-0.38-0.020-0.7-0.32-0.72-0.72v0c0-0.040 0-0.12 0-0.18 0-0.84 0.34-1.62 0.88-2.18v0c0.5-0.48 1.16-0.8 1.88-0.88h0.020c-0.7 1.12-1.1 2.46-1.1 3.92 0 0.020 0 0.020 0 0.040v0zM14.060 18.98h-8.12c-0.8-0.040-1.42-0.7-1.42-1.5 0-0.040 0-0.060 0-0.1v0c0-0.080 0-0.2 0-0.3 0-1.48 0.56-2.8 1.5-3.8v0c0.98-0.9 2.28-1.44 3.72-1.44 0.060 0 0.1 0 0.16 0h0.12c0.060 0 0.16 0 0.24 0 1.44 0 2.74 0.54 3.74 1.44v0c0.92 1 1.48 2.32 1.48 3.8 0 0.1 0 0.22 0 0.32v-0.020c0 0.040 0 0.060 0 0.1 0 0.8-0.62 1.46-1.42 1.5v0zM17.86 17.32h-0.94c0-0.040 0-0.080 0-0.12 0-1.44-0.4-2.78-1.1-3.92l0.020 0.040c0.76 0.080 1.4 0.4 1.92 0.86v0c0.5 0.58 0.82 1.32 0.82 2.16 0 0.080 0 0.18 0 0.28v-0.020c-0.020 0.4-0.34 0.72-0.74 0.72v0zM3.92 11.36c0 0 0.020 0 0.020 0 1.38 0 2.5-1.12 2.5-2.5s-1.12-2.5-2.5-2.5c-1.38 0-2.52 1.12-2.52 2.5 0 0 0 0 0 0.020v0c0.020 1.36 1.12 2.48 2.5 2.48v0zM3.92 7.8c0 0 0.020 0 0.020 0 0.58 0 1.080 0.48 1.080 1.080s-0.5 1.060-1.080 1.060c-0.6 0-1.080-0.48-1.080-1.060v0c0-0.020 0-0.020 0-0.020 0-0.58 0.48-1.060 1.060-1.060 0 0 0 0 0 0v0zM10 9.22c2.24 0 4.040-1.8 4.040-4.040s-1.8-4.060-4.040-4.060c-2.24 0-4.040 1.82-4.040 4.060v0c0 2.24 1.8 4.040 4.040 4.040v0zM10 2.56c1.44 0 2.62 1.18 2.62 2.62s-1.18 2.62-2.62 2.62c-1.44 0-2.62-1.18-2.62-2.62v0c0-1.44 1.18-2.62 2.62-2.62v0z"></path>
</svg>
