<!-- Generated by IcoMoon.io -->
<svg version="1.1" xmlns="http://www.w3.org/2000/svg" width="20" height="20" viewBox="0 0 20 20">
<title>commuities-2-face</title>
<path d="M7.86 9.22c2.24 0 4.040-1.8 4.040-4.040s-1.8-4.060-4.040-4.060c-2.24 0-4.040 1.82-4.040 4.060v0c0 2.24 1.8 4.040 4.040 4.040v0zM7.86 2.56c1.44 0 2.62 1.18 2.62 2.62s-1.18 2.62-2.62 2.62c-1.44 0-2.62-1.18-2.62-2.62v0c0-1.44 1.18-2.62 2.62-2.62v0zM18.58 13.14c-1.060-0.94-2.46-1.54-4-1.54-0.060 0-0.12 0-0.16 0v0h-0.14c-0.020 0-0.060 0-0.1 0-0.7 0-1.36 0.1-2 0.3l0.040-0.020c-1.28-0.92-2.88-1.46-4.6-1.46-0.080 0-0.16 0-0.24 0h0.020c-0.1 0-0.22-0.020-0.32-0.020-2 0-3.82 0.76-5.18 2.020v-0.020c-1.18 1.22-1.9 2.88-1.9 4.72 0 0.1 0 0.18 0 0.28v-0.020c0 0 0 0 0 0 0 1.68 1.34 3.020 3 3.040h8.76c0.96-0.020 1.82-0.48 2.36-1.18l0.020-0.020h3.42c0 0 0.020 0 0.020 0 1.32 0 2.4-1.060 2.42-2.38v0c0-0.060 0-0.12 0-0.18 0-1.36-0.54-2.6-1.42-3.52v0zM11.76 18.98h-8.74c-0.88 0-1.6-0.7-1.6-1.58 0 0 0 0 0-0.020v0c0-0.080 0-0.18 0-0.26 0-1.44 0.56-2.74 1.48-3.7v0c1.1-0.98 2.54-1.58 4.14-1.58 0.080 0 0.16 0 0.22 0v0h0.14c0.1 0 0.22 0 0.36 0 1.58 0 3.020 0.6 4.1 1.58v0c0.92 0.96 1.48 2.26 1.48 3.7 0 0.080 0 0.18 0 0.28v-0.020c0 0.020 0 0.020 0 0.020 0 0.88-0.72 1.58-1.58 1.58v0zM17.56 17.8h-2.86c0.020-0.12 0.040-0.26 0.060-0.4v-0.020c0-0.040 0-0.12 0-0.18 0-1.54-0.5-2.96-1.34-4.12l0.020 0.020c0.22-0.040 0.5-0.060 0.76-0.060 0.020 0 0.060 0 0.1 0h-0.020c0.080 0 0.18-0.020 0.26-0.020 1.16 0 2.22 0.44 3.020 1.16v-0.020c0.62 0.66 1 1.52 1 2.5 0 0.060 0 0.12 0 0.18v0c0 0 0 0 0 0 0 0.54-0.42 0.96-0.94 0.96-0.020 0-0.040 0-0.060 0v0zM14.4 10.9c0 0 0 0 0.020 0 1.5 0 2.74-1.24 2.74-2.76s-1.24-2.74-2.74-2.74c-1.52 0-2.76 1.24-2.76 2.74v0c0 0 0 0 0 0 0 1.52 1.24 2.74 2.74 2.76v0zM14.4 6.84c0 0 0 0 0.020 0 0.72 0 1.3 0.6 1.3 1.32s-0.58 1.32-1.3 1.32c-0.74 0-1.32-0.6-1.32-1.32 0 0 0 0 0-0.020v0c0-0.7 0.58-1.3 1.3-1.3v0z"></path>
</svg>
