<svg width="20" height="20" viewBox="0 0 20 20" fill="none" xmlns="http://www.w3.org/2000/svg">
<path d="M10 0C4.5 0 0 4.5 0 10C0 15.5 4.5 20 10 20C15.5 20 20 15.5 20 10C20 4.5 15.5 0 10 0ZM13.375 12.3125C13.6875 12.625 13.6875 13.125 13.375 13.4375C13.25 13.5625 13.0625 13.625 12.875 13.625C12.6875 13.625 12.5 13.5 12.375 13.4375L10 11.125L7.6875 13.4375C7.5625 13.5625 7.375 13.625 7.1875 13.625C7 13.625 6.8125 13.5 6.6875 13.4375C6.375 13.125 6.375 12.625 6.6875 12.3125L8.875 10L6.5625 7.6875C6.25 7.375 6.25 6.875 6.5625 6.5625C6.875 6.25 7.375 6.25 7.6875 6.5625L10 8.875L12.3125 6.5625C12.625 6.25 13.125 6.25 13.4375 6.5625C13.75 6.875 13.75 7.375 13.4375 7.6875L11.125 10L13.375 12.3125Z" fill="black"/>
</svg>
