<!-- Generated by IcoMoon.io -->
<svg version="1.1" xmlns="http://www.w3.org/2000/svg" width="20" height="20" viewBox="0 0 20 20">
<title>cross-line-thin</title>
<path d="M13.8 6.62c-0.16-0.18-0.4-0.28-0.66-0.28s-0.5 0.1-0.66 0.28v0l-2.5 2.5-2.5-2.5c-0.14-0.1-0.32-0.16-0.5-0.16-0.52 0-0.94 0.42-0.94 0.94 0 0.2 0.060 0.4 0.16 0.54v0l2.5 2.5-2.5 2.5c-0.16 0.18-0.28 0.4-0.28 0.66s0.12 0.5 0.28 0.66v0c0.18 0.18 0.4 0.28 0.66 0.28s0.5-0.1 0.66-0.28v0l2.5-2.5 2.5 2.5c0.18 0.18 0.4 0.28 0.66 0.28s0.5-0.1 0.68-0.28v0c0.16-0.16 0.26-0.4 0.26-0.66s-0.1-0.48-0.26-0.66v0l-2.5-2.5 2.5-2.5c0.14-0.16 0.24-0.4 0.24-0.64 0-0.26-0.12-0.52-0.3-0.68v0zM10 1.040c5.18 0 9.38 4.2 9.38 9.38s-4.2 9.38-9.38 9.38c-5.18 0-9.38-4.2-9.38-9.38v0c0-5.18 4.2-9.38 9.38-9.38v0zM10 0.42c-5.52 0-10 4.48-10 10s4.48 10 10 10c5.52 0 10-4.48 10-10v0c0-5.52-4.48-10-10-10v0z"></path>
</svg>
