<svg version="1.1" id="Layer_1" xmlns="http://www.w3.org/2000/svg" xmlns:xlink="http://www.w3.org/1999/xlink" x="0px" y="0px"
	 viewBox="0 0 20 20" style="enable-background:new 0 0 20 20;" xml:space="preserve">
<title>crown</title>
<path d="M20,5.6c0-1.1-0.9-2-2-2c-1.1,0-2,0.9-2,2c0,0.4,0.1,0.8,0.3,1.1l-3.4,2.9l-2-3.5c1-0.5,1.3-1.7,0.8-2.7
	C11.2,2.4,10,2,9.1,2.5S7.7,4.2,8.3,5.2C8.4,5.5,8.7,5.8,9.1,6l-2,3.5L3.6,6.7C4.2,5.8,4,4.5,3.1,3.9S1,3.5,0.3,4.4S0,6.6,0.9,7.2
	c0.2,0.2,0.5,0.3,0.7,0.3L3.3,17c0.1,0.4,0.4,0.7,0.8,0.7h11.7c0.4,0,0.8-0.3,0.8-0.7l1.7-9.5C19.3,7.3,20,6.5,20,5.6z M15.1,16H4.9
	L3.5,8.8l3.2,2.7c0.2,0.2,0.4,0.2,0.7,0.2c0.2,0,0.5-0.2,0.6-0.4l2-3.5l2,3.5c0.1,0.2,0.3,0.4,0.6,0.4c0.2,0,0.5,0,0.7-0.2l3.2-2.7
	L15.1,16z"/>
</svg>
