<svg width="20" height="20" viewBox="0 0 20 20" fill="none" xmlns="http://www.w3.org/2000/svg">
<rect />
<path d="M6.8 7.2C6.3 7.2 6 7.6 6 8V15C6 15.4 6.3 15.8 6.8 15.8C7.3 15.8 7.6 15.5 7.6 15V8C7.5 7.6 7.2 7.2 6.8 7.2Z"/>
<path d="M10 7.2C9.60001 7.2 9.20001 7.6 9.20001 8V15C9.20001 15.4 9.50001 15.8 10 15.8C10.5 15.8 10.8 15.5 10.8 15V8C10.8 7.6 10.4 7.2 10 7.2Z" />
<path d="M13.2 7.2C12.8 7.2 12.4 7.5 12.4 8V15C12.4 15.4 12.7 15.8 13.2 15.8C13.7 15.8 14 15.4 14 15V8C14 7.6 13.7 7.2 13.2 7.2Z"/>
<path d="M19.2 3.2H17.4H15.4V2.2C15.5 1 14.3 0 12.7 0H7.3C5.7 0 4.5 1 4.5 2.2V3.2H2.5H0.8C0.3 3.2 0 3.6 0 4C0 4.4 0.3 4.8 0.8 4.8H1.8L2.4 17C2.5 18.6 3.9 20 5.6 20H14.6C16.4 20 17.8 18.6 17.8 16.9L18.2 4.8H19.2C19.7 4.8 20 4.4 20 4C20 3.6 19.7 3.2 19.2 3.2ZM6 2.2C6 1.8 6.5 1.4 7.3 1.4H12.7C13.4 1.4 14 1.8 14 2.2V3.2H6V2.2ZM16.3 16.8C16.3 17.7 15.5 18.5 14.6 18.5H5.6C4.7 18.5 3.9 17.8 3.9 16.8L3.3 4.8H5.3H14.8H16.8L16.3 16.8Z"/>
</svg>
