<svg width="21" height="21" viewBox="0 0 21 21" fill="none" xmlns="http://www.w3.org/2000/svg">
<g clip-path="url(#clip0)">
<path d="M7.96557 10.3908C8.12733 10.5575 8.22706 10.7847 8.22706 11.0353C8.22706 11.042 8.22706 11.0487 8.22706 11.0554V11.0545V16.747C8.23377 16.788 8.23712 16.835 8.23712 16.8827C8.23712 17.394 7.8231 17.808 7.31185 17.808C6.80061 17.808 6.38658 17.394 6.38658 16.8827C6.38658 16.835 6.38993 16.7872 6.39748 16.7419L6.39664 16.747V11.9798H3.25877V16.747C3.25877 17.0076 3.15065 17.2423 2.97716 17.4107C2.80787 17.5725 2.57739 17.6722 2.32428 17.6722C2.32009 17.6722 2.31674 17.6722 2.31255 17.6722H2.31338C1.81387 17.6722 1.40823 17.2666 1.40823 16.7671C1.40823 16.7604 1.40823 16.7528 1.40823 16.7461V16.747V11.1149L0.000209726 4.55753C-0.00900945 4.50641 -0.0140381 4.4469 -0.0140381 4.38656C-0.0140381 4.32622 -0.00900945 4.26671 0.00104783 4.20972L0.000209726 4.21559C0.0236767 4.07897 0.073125 3.95661 0.143526 3.85017L0.141012 3.85352C0.208898 3.74708 0.296061 3.65992 0.399148 3.59371L0.402501 3.59203C0.499721 3.52331 0.614542 3.47386 0.73942 3.45207L0.744448 3.45123H1.10651C1.23642 3.47805 1.3504 3.52666 1.45181 3.59455L1.44846 3.59203C1.53394 3.66663 1.6077 3.75295 1.6672 3.8485L1.66972 3.85352C1.73677 3.95074 1.78538 4.06556 1.80968 4.1896L1.81052 4.19547L3.03751 10.1092H7.30179C7.30431 10.1092 7.30682 10.1092 7.30934 10.1092C7.56747 10.1092 7.80047 10.2173 7.96474 10.3908H7.96557ZM20.1148 4.53742C20.1231 4.49048 20.1282 4.43685 20.1282 4.38153C20.1282 3.92979 19.8047 3.55348 19.3764 3.47219L19.3705 3.47135H19.2096C19.0143 3.47219 18.8333 3.53253 18.6833 3.63478L18.6866 3.63226C18.4863 3.77055 18.3455 3.98343 18.3053 4.23067L18.3045 4.2357L17.2585 10.089H13.0546C13.0487 10.089 13.0411 10.089 13.0344 10.089C12.5349 10.089 12.1293 10.4947 12.1293 10.9942C12.1293 11.0017 12.1293 11.0084 12.1293 11.016V11.0151V16.7277C12.1343 16.9875 12.2408 17.2213 12.4109 17.3915C12.5768 17.5532 12.804 17.6529 13.0546 17.6529C13.0629 17.6529 13.0722 17.6529 13.0814 17.6529C13.3295 17.6529 13.5549 17.5532 13.7183 17.3906C13.8801 17.2238 13.9798 16.9967 13.9798 16.7461C13.9798 16.7394 13.9798 16.7327 13.9798 16.726V16.7268V11.9597H17.0976V16.7268C17.0976 16.9875 17.2057 17.2222 17.3792 17.3906C17.5426 17.5524 17.7672 17.6521 18.0153 17.6521C18.0178 17.6521 18.0203 17.6521 18.0229 17.6521C18.0287 17.6521 18.0354 17.6521 18.0421 17.6521C18.2927 17.6521 18.5207 17.5524 18.6875 17.3906C18.8492 17.218 18.949 16.9858 18.949 16.7302C18.949 16.7294 18.949 16.7277 18.949 16.7268V11.135L20.1148 4.53742ZM15.3677 7.61495C15.5337 7.449 15.6393 7.22355 15.6493 6.97296V6.97128C15.6468 6.71147 15.5395 6.4768 15.3677 6.3075C15.2043 6.1382 14.9772 6.03176 14.7249 6.0259H14.7241H5.61217C5.10176 6.02673 4.68774 6.44076 4.68774 6.95117C4.68774 7.21182 4.79502 7.44649 4.96851 7.61495C5.12858 7.7767 5.35152 7.87644 5.59709 7.87644C5.60211 7.87644 5.60798 7.87644 5.61301 7.87644H5.61217H9.21268V16.747C9.21268 17.0076 9.32079 17.2423 9.49428 17.4107C9.65771 17.5725 9.88233 17.6722 10.1312 17.6722C10.1405 17.6722 10.1505 17.6722 10.1597 17.6714H10.1581C10.6576 17.6714 11.0632 17.2657 11.0632 16.7662C11.0632 16.7595 11.0632 16.752 11.0632 16.7453V16.7461V7.8756H14.704C14.7098 7.8756 14.7165 7.8756 14.7232 7.8756C14.9738 7.8756 15.2018 7.77586 15.3686 7.61411L15.3677 7.61495Z" fill="white"/>
</g>
<defs>
<clipPath id="clip0">
<rect width="20.1146" height="20.1146" fill="white" transform="translate(0 0.494263)"/>
</clipPath>
</defs>
</svg>
