<!-- Generated by IcoMoon.io -->
<svg version="1.1" xmlns="http://www.w3.org/2000/svg" width="20" height="20" viewBox="0 0 20 20">
<title>dinning</title>
<path d="M17.62 11.9l-5.66-0.7c-0.040 0-0.060 0-0.1 0-0.36 0-0.66 0.28-0.7 0.62v0c-0.060 0.3-0.1 0.64-0.1 0.98 0 0.8 0.18 1.54 0.48 2.24l-0.020-0.040c0.5 0.98 1.48 1.66 2.62 1.74v0c0.080 0.020 0.18 0.020 0.26 0.020s0.18 0 0.28-0.020h-0.020c1.96 0 3.26-1.46 3.58-4.080 0-0.040 0-0.060 0-0.1 0-0.16-0.060-0.32-0.14-0.44v0c-0.12-0.12-0.28-0.2-0.48-0.22v0zM14.28 15.32c-0.66 0-1.22-0.38-1.52-0.94v0c-0.18-0.42-0.28-0.92-0.28-1.44 0-0.080 0-0.14 0-0.22v0l4.18 0.52c-0.46 2.32-1.86 2.16-2.38 2.080zM3.82 15.26l4.9-1.8c0.2-0.080 0.38-0.26 0.44-0.48v0c0.14-0.56 0.22-1.2 0.22-1.86 0-0.92-0.16-1.8-0.44-2.62l0.020 0.060c-1.12-3.060-3.82-4.7-6.2-3.82-1.22 0.48-2.14 1.46-2.5 2.7v0.020c-0.16 0.54-0.26 1.18-0.26 1.82 0 0.86 0.16 1.66 0.46 2.42l-0.020-0.040c0.58 1.42 1.5 2.62 2.68 3.5h0.020c0.1 0.080 0.24 0.14 0.4 0.14 0 0 0 0 0 0v0c0.020 0 0.020 0 0.040 0 0.080 0 0.16-0.020 0.24-0.040v0zM1.82 11.16c-0.24-0.56-0.38-1.22-0.38-1.92 0-0.48 0.060-0.94 0.18-1.38v0.040c0.22-0.84 0.82-1.5 1.6-1.82h0.020c0.24-0.1 0.54-0.14 0.84-0.16v0c1.42 0 2.86 1.2 3.54 3.12 0.2 0.64 0.34 1.36 0.34 2.1 0 0.4-0.040 0.78-0.1 1.16v-0.040l-4.2 1.48c-0.8-0.68-1.44-1.54-1.86-2.52v-0.060zM16.2 0.42c-0.14-0.020-0.3-0.020-0.46-0.020-1.2 0-2.26 0.5-3.020 1.3v0.020c-0.94 1-1.56 2.32-1.72 3.78v0.020c-0.040 0.28-0.060 0.6-0.060 0.92 0 1.28 0.3 2.48 0.84 3.54l-0.020-0.040c0.12 0.2 0.3 0.34 0.54 0.38v0l5.2 0.62h0.1c0.2 0 0.38-0.080 0.52-0.22v0c0.94-1.1 1.6-2.48 1.82-4v-0.040c0.4-3.24-1.24-5.92-3.74-6.26zM18.56 6.46c-0.18 1.14-0.62 2.14-1.24 3v-0.020l-4.42-0.54c-0.34-0.78-0.54-1.7-0.54-2.64 0-0.18 0-0.36 0.020-0.54v0.020c0.12-1.16 0.6-2.2 1.32-3v0c0.5-0.54 1.22-0.88 2.020-0.88 0.080 0 0.18 0 0.26 0v0c1.74 0.22 2.84 2.22 2.54 4.64zM9.26 14.28l-5.38 1.94c-0.16 0.080-0.3 0.2-0.4 0.38v0c-0.020 0.080-0.040 0.18-0.040 0.26s0.020 0.2 0.040 0.28v0c0.76 2.14 2.040 3.28 3.6 3.28 0.46 0 0.9-0.1 1.32-0.26l-0.020 0.020c1.060-0.34 1.88-1.2 2.14-2.28v-0.020c0.060-0.3 0.1-0.64 0.1-1 0-0.78-0.16-1.54-0.46-2.22l0.020 0.040c-0.12-0.28-0.38-0.46-0.68-0.46-0.080 0-0.16 0-0.24 0.040v0zM9.14 17.56c-0.16 0.64-0.64 1.12-1.26 1.3v0c-0.46 0.16-1.76 0.64-2.8-1.52l3.96-1.46c0.1 0.3 0.16 0.64 0.16 1 0 0.24-0.020 0.48-0.060 0.7v-0.020z"></path>
</svg>
