<svg version="1.1" id="Layer_1" xmlns="http://www.w3.org/2000/svg" xmlns:xlink="http://www.w3.org/1999/xlink" x="0px" y="0px"
	viewBox="0 0 20 20" style="enable-background:new 0 0 20 20;" xml:space="preserve">
<title>Artboard 809</title>
<path d="M10.9,10.4c-0.5-0.5-1.3-0.5-1.8,0l-7.3,7.2c-0.5,0.5-0.5,1.3,0,1.8c0.5,0.5,1.3,0.5,1.8,0c0,0,0,0,0,0L10,13l6.4,6.4
	c0.5,0.5,1.3,0.4,1.8-0.1c0.4-0.5,0.4-1.2,0-1.7L10.9,10.4z"/>
<path d="M3.6,9.6L10,3.3l6.4,6.3c0.5,0.5,1.3,0.5,1.8,0c0.5-0.5,0.5-1.3,0-1.8l-7.3-7.2c-0.5-0.5-1.3-0.5-1.8,0L1.9,7.8
	c-0.5,0.5-0.5,1.3,0,1.8S3.2,10.1,3.6,9.6z"/>
</svg>
