<!-- Generated by IcoMoon.io -->
<svg version="1.1" xmlns="http://www.w3.org/2000/svg" width="20" height="20" viewBox="0 0 20 20">
<title>explore-fill</title>
<path d="M11.2 10c0 0.663-0.537 1.2-1.2 1.2s-1.2-0.537-1.2-1.2c0-0.663 0.537-1.2 1.2-1.2v0c0.663 0 1.2 0.537 1.2 1.2v0zM20 10c0 5.523-4.477 10-10 10s-10-4.477-10-10c0-5.523 4.477-10 10-10v0c5.523 0 10 4.477 10 10v0zM14.28 5.42l-5.8 2.6c-0.203 0.097-0.363 0.257-0.457 0.454l-0.003 0.006-2.6 5.8c-0.018 0.031-0.029 0.069-0.029 0.109 0 0.122 0.098 0.22 0.22 0.22 0.040 0 0.078-0.011 0.11-0.029l-0.001 0.001 5.78-2.6c0.203-0.097 0.363-0.257 0.457-0.454l0.002-0.006 2.62-5.8c0.018-0.031 0.029-0.069 0.029-0.109 0-0.122-0.098-0.22-0.22-0.22-0.040 0-0.078 0.011-0.11 0.029l0.001-0.001z"></path>
</svg>
