<svg width="20" height="20" viewBox="0 0 20 20" fill="none" xmlns="http://www.w3.org/2000/svg">
<g clip-path="url(#clip0)">
<path d="M9.99998 6.04168C9.86121 6.03347 9.72208 6.03347 9.58331 6.04168L13.925 10.325C13.925 10.2084 13.925 10.0834 13.925 9.95835C13.9141 8.92152 13.4968 7.93035 12.7629 7.19794C12.0289 6.46553 11.0368 6.05036 9.99998 6.04168V6.04168Z" fill="black"/>
<path d="M2.25002 1.17502C2.09199 1.02031 1.87898 0.934714 1.65784 0.937059C1.43671 0.939403 1.22556 1.0295 1.07085 1.18752C0.916139 1.34555 0.830541 1.55856 0.832885 1.77969C0.835229 2.00083 0.925324 2.21198 1.08335 2.36669L3.47502 4.73336C1.73628 5.95544 0.501214 7.76805 1.51751e-05 9.83336C-0.0249888 9.94306 -0.0249888 10.057 1.51751e-05 10.1667C0.833348 14.2084 5.31668 17.5 10 17.5C11.7761 17.4872 13.5218 17.0379 15.0833 16.1917L17.75 18.825C17.9052 18.979 18.1147 19.0658 18.3333 19.0667C18.4436 19.0662 18.5527 19.0439 18.6542 19.001C18.7558 18.9581 18.8478 18.8954 18.925 18.8167C19.0031 18.7392 19.0651 18.6471 19.1074 18.5455C19.1497 18.444 19.1715 18.335 19.1715 18.225C19.1715 18.115 19.1497 18.0061 19.1074 17.9045C19.0651 17.803 19.0031 17.7108 18.925 17.6334L2.25002 1.17502ZM7.90001 9.10002L10.9333 12.0917C10.6393 12.2217 10.3216 12.2898 10 12.2917C9.39223 12.2917 8.80933 12.0502 8.37956 11.6205C7.94979 11.1907 7.70835 10.6078 7.70835 10C7.70654 9.68971 7.77192 9.38267 7.90001 9.10002V9.10002ZM10 15.8334C6.13335 15.8334 2.45002 13.2334 1.66668 10C2.13664 8.3172 3.19917 6.86104 4.65835 5.90002L6.66668 7.88336C6.25889 8.51402 6.04187 9.24901 6.04168 10C6.04168 11.0498 6.45872 12.0567 7.20105 12.799C7.94338 13.5413 8.9502 13.9584 10 13.9584C10.7655 13.9688 11.5168 13.7512 12.1583 13.3334L13.825 15C12.6249 15.55 11.3201 15.8342 10 15.8334V15.8334Z" fill="black"/>
<path d="M9.99999 2.5C8.82497 2.50264 7.65874 2.70264 6.54999 3.09167L7.89999 4.425C8.58711 4.25506 9.29217 4.16833 9.99999 4.16667C13.8667 4.16667 17.55 6.76667 18.3333 10C18.0375 11.1395 17.4452 12.1803 16.6167 13.0167L17.775 14.1667C18.8813 13.0716 19.653 11.6842 20 10.1667C20.025 10.057 20.025 9.94304 20 9.83333C19.1667 5.83333 14.6833 2.5 9.99999 2.5Z" fill="black"/>
</g>
<defs>
<clipPath id="clip0">
<rect width="20" height="20" fill="white"/>
</clipPath>
</defs>
</svg>
