<!-- Generated by IcoMoon.io -->
<svg version="1.1" xmlns="http://www.w3.org/2000/svg" width="20" height="20" viewBox="0 0 20 20">
<title>feed</title>
<path d="M17.14 0.42h-14.28c-1.58 0-2.86 1.28-2.86 2.86v0 14.28c0 1.58 1.28 2.86 2.86 2.86v0h14.28c1.58 0 2.86-1.28 2.86-2.86v0-14.28c0-1.58-1.28-2.86-2.86-2.86v0zM18.58 17.56c0 0.78-0.64 1.42-1.44 1.42v0h-14.28c-0.8 0-1.44-0.64-1.44-1.42v0-14.28c0-0.8 0.64-1.44 1.44-1.44v0h14.28c0.8 0 1.44 0.64 1.44 1.44v0zM16.66 12.080c0 0.4-0.32 0.72-0.7 0.72h-11.92c-0.38 0-0.7-0.32-0.7-0.72s0.32-0.72 0.7-0.72v0h11.92c0.38 0.020 0.7 0.32 0.7 0.72v0zM12.86 15.42c0 0.38-0.32 0.7-0.72 0.7h-8.1c-0.38 0-0.7-0.3-0.7-0.7s0.32-0.72 0.7-0.72v0h8.1c0.4 0 0.72 0.32 0.72 0.72v0zM6.2 9.7c1.56 0 2.84-1.28 2.84-2.86s-1.28-2.86-2.84-2.86c-1.58 0-2.86 1.28-2.86 2.86v0c0 1.58 1.28 2.86 2.86 2.86v0zM6.2 5.42c0.78 0 1.42 0.64 1.42 1.42s-0.64 1.44-1.42 1.44c-0.8 0-1.44-0.64-1.44-1.44v0c0-0.78 0.64-1.42 1.44-1.42v0z"></path>
</svg>
