<svg width="20" height="20" viewBox="0 0 20 20" fill="none" xmlns="http://www.w3.org/2000/svg">
<path d="M13.2692 15.1923C13.522 15.1914 13.7724 15.2406 14.0061 15.337C14.2398 15.4334 14.4521 15.575 14.6308 15.7538L15.4 16.5231L17.8846 14.0385C18.0586 13.8733 18.2587 13.7381 18.4769 13.6385V5.38461C18.4769 4.36455 18.0717 3.38627 17.3504 2.66497C16.6291 1.94368 15.6508 1.53846 14.6308 1.53846L5.38462 1.53846C4.36455 1.53846 3.38627 1.94368 2.66497 2.66497C1.94368 3.38627 1.53846 4.36455 1.53846 5.38461L1.53846 14.6154C1.53846 15.6354 1.94368 16.6137 2.66497 17.335C3.38627 18.0563 4.36455 18.4615 5.38462 18.4615H11.9C11.6351 18.1913 11.4559 17.849 11.3847 17.4774C11.3134 17.1058 11.3534 16.7215 11.4996 16.3725C11.6457 16.0235 11.8916 15.7254 12.2064 15.5154C12.5212 15.3055 12.8909 15.1931 13.2692 15.1923V15.1923ZM5.23077 14.2308C5.16178 14.222 5.09544 14.1987 5.03611 14.1624C4.97679 14.1261 4.92582 14.0776 4.88658 14.0202C4.84733 13.9628 4.8207 13.8977 4.80843 13.8293C4.79616 13.7608 4.79853 13.6905 4.81538 13.6231C4.98668 12.6848 5.41997 11.8142 6.06518 11.1118C6.71039 10.4095 7.54118 9.90399 8.46154 9.65384C8.04714 9.44709 7.70243 9.12341 7.47002 8.72284C7.2376 8.32227 7.12768 7.86237 7.15385 7.4C7.11538 5.38461 8.3 4.42308 10 4.42308C11.7 4.42308 12.8846 5.38461 12.8846 7.4C12.9108 7.86237 12.8009 8.32227 12.5684 8.72284C12.336 9.12341 11.9913 9.44709 11.5769 9.65384C12.4902 9.91022 13.3128 10.4184 13.9508 11.1204C14.5888 11.8223 15.0164 12.6896 15.1846 13.6231C15.2015 13.6905 15.2038 13.7608 15.1916 13.8293C15.1793 13.8977 15.1527 13.9628 15.1134 14.0202C15.0742 14.0776 15.0232 14.1261 14.9639 14.1624C14.9046 14.1987 14.8382 14.222 14.7692 14.2308H5.23077Z" fill="black"/>
<path d="M19.7575 14.8413C19.6862 14.7697 19.6015 14.7129 19.5081 14.6741C19.4148 14.6353 19.3146 14.6154 19.2135 14.6154C19.1123 14.6154 19.0122 14.6353 18.9188 14.6741C18.8255 14.7129 18.7407 14.7697 18.6695 14.8413L15.3826 18.1247L13.8503 16.5594C13.7019 16.4115 13.5008 16.3285 13.291 16.3285C13.0812 16.3285 12.88 16.4115 12.7317 16.5594C12.5833 16.7072 12.5 16.9077 12.5 17.1168C12.5 17.3259 12.5833 17.5264 12.7317 17.6742L14.8386 19.7741C14.9099 19.8457 14.9946 19.9025 15.088 19.9413C15.1813 19.98 15.2815 20 15.3826 20C15.4838 20 15.5839 19.98 15.6773 19.9413C15.7706 19.9025 15.8554 19.8457 15.9266 19.7741L19.7575 15.9561C19.834 15.8847 19.895 15.7984 19.9368 15.7025C19.9785 15.6066 20 15.5032 20 15.3987C20 15.2942 19.9785 15.1908 19.9368 15.0949C19.895 14.999 19.834 14.9127 19.7575 14.8413Z" fill="black"/>
</svg>
