<!-- Generated by IcoMoon.io -->
<svg version="1.1" xmlns="http://www.w3.org/2000/svg" width="20" height="20" viewBox="0 0 20 20">
<title>gold</title>
<path d="M19.54 9.3l-2.34-2.36-3.74-3.66-2.34-2.4c-0.28-0.28-0.68-0.46-1.12-0.46s-0.84 0.18-1.12 0.46v0l-2.34 2.4-3.68 3.66-2.4 2.36c-0.28 0.28-0.46 0.68-0.46 1.12s0.18 0.84 0.46 1.12v0l2.4 2.34 6.060 6.080c0.3 0.28 0.68 0.46 1.12 0.46s0.84-0.18 1.14-0.46l8.4-8.42c0.28-0.28 0.44-0.68 0.44-1.1 0-0.46-0.18-0.86-0.48-1.14v0zM9.88 1.9c0.040-0.040 0.080-0.060 0.12-0.060s0.080 0.020 0.12 0.060v0l1.84 1.82-5.72 5.72-1.9-1.9 3.2-3.32zM10 13.12l-2.72-2.7 2.72-2.72 2.72 2.72zM1.48 10.52c-0.040-0.020-0.060-0.060-0.060-0.1s0.020-0.1 0.060-0.12v0l1.84-1.84 5.7 5.72-1.9 1.94-3.3-3.24zM10.12 18.94c-0.040 0.040-0.080 0.060-0.12 0.060s-0.080-0.020-0.12-0.060v0l-1.84-1.84 5.72-5.72 1.96 1.92-3.26 3.3zM18.52 10.52l-1.84 1.84-5.7-5.7 1.9-1.92 3.32 3.22 2.34 2.34c0.020 0.020 0.040 0.060 0.040 0.12 0 0.040-0.020 0.080-0.060 0.1v0z"></path>
</svg>
