<svg width="20" height="20" viewBox="0 0 20 20" fill="none" xmlns="http://www.w3.org/2000/svg">
<path d="M10 0C4.5 0 0 4.5 0 10C0 15.5 4.5 20 10 20C15.5 20 20 15.5 20 10C20 4.5 15.5 0 10 0ZM13.5 14.1875C12.6875 14.9375 11.5 15.4375 10.125 15.4375C8.125 15.4375 6.375 14.25 5.5625 12.5625C5.1875 11.8125 5 11.0625 5 10.1875C5 9.3125 5.1875 8.5625 5.5625 7.875C6.375 6.1875 8.125 5 10.125 5C11.5 5 12.6875 5.5 13.5625 6.3125L12.125 7.75C11.75 7.4375 11.125 7 10.125 7C8.8125 7 7.625 7.9375 7.25 9.1875C7.125 9.5 7.0625 9.875 7.0625 10.1875C7.0625 10.5 7.125 10.9375 7.25 11.25C7.6875 12.5 8.8125 13.4375 10.125 13.4375C10.875 13.4375 11.4375 13.1875 11.875 12.9375C12.5625 12.4375 12.875 11.6875 12.9375 11.25H10.125V9.3125H14.9375C15 9.625 15.0625 9.9375 15.0625 10.375C15 11.875 14.4375 13.25 13.5 14.1875Z" fill="black"/>
</svg>
