<!-- Generated by IcoMoon.io -->
<svg version="1.1" xmlns="http://www.w3.org/2000/svg" width="20" height="20" viewBox="0 0 20 20">
<title>heart-empty</title>
<path d="M10 19.46c-0.080 0-0.18-0.020-0.26-0.040h0.020c-0.080 0-7.22-2.86-9.4-9.42-0.36-1.1-0.94-4.76 1.16-7.020 0.8-0.98 2-1.6 3.36-1.62v0c2.12 0.080 3.96 1.16 5.1 2.78l0.020 0.020c1.1-1.68 2.98-2.78 5.12-2.8v0c1.36 0.020 2.56 0.64 3.36 1.6v0.020c2.1 2.26 1.52 5.92 1.16 7.020-2.18 6.54-9.32 9.38-9.4 9.42-0.060 0.020-0.14 0.040-0.24 0.040v0zM4.88 2.8c-0.94 0-1.78 0.46-2.3 1.14v0c-1.62 1.78-1.1 4.92-0.86 5.6 1.7 5.18 7.060 7.86 8.28 8.44 1.22-0.58 6.58-3.26 8.28-8.44 0.24-0.68 0.8-3.8-0.86-5.6-0.52-0.68-1.36-1.14-2.3-1.14v0c-2.020 0.020-3.76 1.28-4.46 3.060l-0.020 0.040c-0.12 0.24-0.36 0.4-0.64 0.4s-0.52-0.16-0.64-0.4v0c-0.8-1.76-2.48-2.98-4.46-3.1h-0.020z"></path>
</svg>
