<svg width="20" height="20" viewBox="0 0 20 20" fill="none" xmlns="http://www.w3.org/2000/svg">
<path d="M19.76 7.84001L10.4 0.560011L10.28 0.500011H10.2C10.14 0.480011 10.0717 0.469177 10 0.469177C9.92835 0.469177 9.86002 0.480844 9.79502 0.501677L9.80002 0.500011H9.72002L9.62002 0.540011L6.66002 2.84001V1.46001C6.64919 1.12168 6.37835 0.850844 6.04085 0.840011H6.04002H3.76002C3.41335 0.840011 3.13169 1.11501 3.12002 1.45918V1.46001V5.62001L0.240021 7.84001C0.0941878 7.95418 0.000854492 8.13084 0.000854492 8.32918C0.000854492 8.47751 0.0533545 8.61418 0.140854 8.72168L0.140021 8.72084C0.254188 8.86084 0.427521 8.95001 0.621688 8.95001C0.765021 8.95001 0.896688 8.90168 1.00169 8.82001L1.00002 8.82084L2.30002 7.82084V16.4608C2.31085 16.7992 2.58169 17.07 2.91919 17.0808H2.92002H17.08C17.4184 17.07 17.6892 16.7992 17.7 16.4617V16.4608V7.82084L19 8.82084C19.1025 8.90584 19.235 8.95751 19.3792 8.96084H19.38C19.575 8.95751 19.7475 8.86501 19.8592 8.72251L19.86 8.72084C19.9467 8.61501 19.9992 8.47834 19.9992 8.33001C19.9992 8.13168 19.9067 7.95584 19.7617 7.84168L19.76 7.84084V7.84001ZM4.38002 4.50001V2.08001H5.42002V3.82001L5.36002 3.86001L4.38002 4.50001ZM7.92002 15.84V10.42H12.08V15.84H7.92002ZM16.46 15.84H13.34V9.80001C13.34 9.44668 13.0534 9.16001 12.7 9.16001H7.30002C6.94669 9.16001 6.66002 9.44668 6.66002 9.80001V15.84H3.54002V6.96001L10 1.84001L16.46 6.96001V15.84ZM18.76 17.7H1.26002C0.911688 17.7 0.630021 17.9817 0.630021 18.33C0.630021 18.6783 0.911688 18.96 1.26002 18.96H18.76C19.1084 18.96 19.39 18.6783 19.39 18.33C19.39 17.9817 19.1084 17.7 18.76 17.7Z" fill="#1C1C1C"/>
</svg>
