<svg width="20" height="20" viewBox="0 0 20 20" fill="none" xmlns="http://www.w3.org/2000/svg">
<g clip-path="url(#clip0)">
<path d="M6.99164 5C7.01026 5.58481 7.15995 6.15797 7.42966 6.6772C7.69938 7.19644 8.08223 7.64849 8.54997 8C8.86913 8.22143 9.12475 8.52256 9.29142 8.87344C9.45808 9.22432 9.52998 9.61271 9.49997 10C9.51576 10.3902 9.43774 10.7785 9.27244 11.1323C9.10714 11.4861 8.85938 11.7951 8.54997 12.0333C8.13127 12.3441 7.78068 12.7373 7.51982 13.1888C7.25897 13.6403 7.09339 14.1404 7.0333 14.6583C7.42094 14.2653 7.88282 13.9532 8.3921 13.7401C8.90139 13.5271 9.44793 13.4174 9.99997 13.4174C10.552 13.4174 11.0986 13.5271 11.6078 13.7401C12.1171 13.9532 12.579 14.2653 12.9666 14.6583C12.9065 14.1404 12.741 13.6403 12.4801 13.1888C12.2193 12.7373 11.8687 12.3441 11.45 12.0333C11.1256 11.809 10.8667 11.5025 10.6998 11.1452C10.5329 10.7879 10.4639 10.3927 10.5 10C10.4842 9.60981 10.5622 9.22152 10.7275 8.86771C10.8928 8.51391 11.1406 8.20492 11.45 7.96667C11.9134 7.61866 12.2937 7.17192 12.5632 6.65882C12.8327 6.14572 12.9848 5.5791 13.0083 5H6.99164Z" fill="black"/>
<path d="M10 0C8.02219 0 6.08879 0.58649 4.4443 1.6853C2.79981 2.78412 1.51809 4.3459 0.761209 6.17317C0.00433286 8.00043 -0.193701 10.0111 0.192152 11.9509C0.578004 13.8907 1.53041 15.6725 2.92894 17.0711C4.32746 18.4696 6.10929 19.422 8.0491 19.8079C9.98891 20.1937 11.9996 19.9957 13.8268 19.2388C15.6541 18.4819 17.2159 17.2002 18.3147 15.5557C19.4135 13.9112 20 11.9778 20 10C20 7.34783 18.9464 4.8043 17.0711 2.92893C15.1957 1.05357 12.6522 0 10 0V0ZM12.075 11.2417C12.6595 11.682 13.137 12.2488 13.4718 12.8996C13.8065 13.5504 13.99 14.2684 14.0083 15H14.5333C14.6559 15.0158 14.7685 15.0757 14.8501 15.1685C14.9317 15.2613 14.9767 15.3806 14.9767 15.5042C14.9767 15.6277 14.9317 15.7471 14.8501 15.8399C14.7685 15.9327 14.6559 15.9925 14.5333 16.0083H5.46667C5.34411 15.9925 5.23151 15.9327 5.1499 15.8399C5.0683 15.7471 5.02329 15.6277 5.02329 15.5042C5.02329 15.3806 5.0683 15.2613 5.1499 15.1685C5.23151 15.0757 5.34411 15.0158 5.46667 15H5.99167C6.00504 14.2627 6.18607 13.5381 6.52104 12.8812C6.85601 12.2242 7.33612 11.6522 7.925 11.2083C8.10985 11.0675 8.25791 10.8841 8.35658 10.6737C8.45525 10.4633 8.50159 10.2322 8.49167 10C8.52882 9.76031 8.49495 9.51498 8.39424 9.29432C8.29354 9.07366 8.13041 8.88733 7.925 8.75833C7.34049 8.31795 6.86301 7.7512 6.52824 7.10041C6.19347 6.44963 6.01004 5.73161 5.99167 5H5.46667C5.34411 4.98421 5.23151 4.92432 5.1499 4.83153C5.0683 4.73874 5.02329 4.6194 5.02329 4.49583C5.02329 4.37226 5.0683 4.25293 5.1499 4.16014C5.23151 4.06734 5.34411 4.00746 5.46667 3.99167H14.5333C14.6559 4.00746 14.7685 4.06734 14.8501 4.16014C14.9317 4.25293 14.9767 4.37226 14.9767 4.49583C14.9767 4.6194 14.9317 4.73874 14.8501 4.83153C14.7685 4.92432 14.6559 4.98421 14.5333 5H14.0083C13.995 5.73729 13.8139 6.46187 13.479 7.11881C13.144 7.77575 12.6639 8.34782 12.075 8.79167C11.8902 8.93249 11.7421 9.11592 11.6434 9.32631C11.5448 9.5367 11.4984 9.76783 11.5083 10C11.4712 10.2397 11.5051 10.485 11.6058 10.7057C11.7065 10.9263 11.8696 11.1127 12.075 11.2417V11.2417Z" fill="black"/>
</g>
<defs>
<clipPath id="clip0">
<rect width="20" height="20" fill="white"/>
</clipPath>
</defs>
</svg>
