<!-- Generated by IcoMoon.io -->
<svg version="1.1" xmlns="http://www.w3.org/2000/svg" width="20" height="20" viewBox="0 0 20 20">
<title>Instagram-Fill</title>
<path d="M10 0.42v0c2.72 0 3.060 0 4.12 0.060 1.060 0.040 1.8 0.22 2.44 0.46 0.64 0.26 1.2 0.6 1.76 1.16 0.56 0.54 0.9 1.1 1.16 1.76 0.24 0.64 0.42 1.36 0.46 2.44 0.040 1.060 0.060 1.4 0.060 4.12s-0.020 3.060-0.060 4.12c-0.040 1.060-0.22 1.78-0.46 2.42-0.26 0.66-0.6 1.22-1.16 1.78s-1.12 0.9-1.76 1.16c-0.64 0.24-1.38 0.4-2.44 0.46-1.060 0.040-1.4 0.060-4.12 0.060s-3.060-0.020-4.12-0.060c-1.060-0.060-1.8-0.22-2.42-0.46-0.66-0.26-1.22-0.6-1.78-1.16s-0.9-1.12-1.16-1.78c-0.24-0.64-0.4-1.36-0.46-2.42-0.040-1.060-0.060-1.4-0.060-4.12s0.020-3.060 0.060-4.12c0.040-1.080 0.22-1.8 0.46-2.44 0.26-0.66 0.6-1.22 1.16-1.76 0.56-0.56 1.12-0.9 1.78-1.16 0.62-0.24 1.36-0.42 2.42-0.46 1.060-0.060 1.4-0.060 4.12-0.060zM9.1 2.22v0c-1.86 0-2.22 0-3.14 0.060-0.98 0.040-1.5 0.2-1.86 0.34-0.46 0.18-0.8 0.4-1.14 0.74s-0.58 0.68-0.76 1.16c-0.14 0.34-0.3 0.88-0.34 1.86-0.040 1.040-0.060 1.36-0.060 4.040 0 2.66 0.020 2.98 0.060 4.040 0.040 0.96 0.2 1.5 0.34 1.84 0.18 0.48 0.4 0.8 0.76 1.16s0.68 0.56 1.14 0.74c0.36 0.14 0.88 0.3 1.86 0.36 1.060 0.040 1.38 0.060 4.040 0.060 2.68 0 2.98-0.020 4.040-0.060 0.98-0.060 1.5-0.22 1.86-0.36 0.46-0.18 0.8-0.4 1.14-0.74 0.36-0.34 0.58-0.68 0.76-1.16 0.14-0.34 0.3-0.88 0.34-1.84 0.040-1.060 0.060-1.38 0.060-4.040 0-2.68-0.020-3-0.060-4.040-0.040-0.98-0.2-1.52-0.34-1.86-0.18-0.46-0.4-0.8-0.76-1.16-0.34-0.34-0.68-0.56-1.14-0.74-0.36-0.14-0.88-0.3-1.86-0.34-1.060-0.060-1.36-0.060-4.040-0.060-0.34 0-0.62 0-0.9 0zM15.34 3.88v0c0.66 0 1.2 0.54 1.2 1.2s-0.54 1.2-1.2 1.2c-0.66 0-1.2-0.54-1.2-1.2s0.54-1.2 1.2-1.2zM10 5.28v0c2.84 0 5.14 2.3 5.14 5.14s-2.3 5.14-5.14 5.14c-2.84 0-5.14-2.3-5.14-5.14s2.3-5.14 5.14-5.14zM10 7.080c-1.84 0-3.34 1.5-3.34 3.34s1.5 3.32 3.34 3.32c1.84 0 3.34-1.48 3.34-3.32s-1.5-3.34-3.34-3.34z"></path>
</svg>
