<svg xmlns="http://www.w3.org/2000/svg" width="21" height="21" viewBox="0 0 21 21" fill="none">
<path fill-rule="evenodd" clip-rule="evenodd" d="M1.0973 10.5382C1.13678 10.3909 1.23318 10.2653 1.36528 10.189L15.2272 2.18581C15.5023 2.02699 15.854 2.12124 16.0129 2.39633L16.1947 2.71133C16.3535 2.98641 16.2593 3.33815 15.9842 3.49698C15.9394 3.52286 15.847 3.61475 15.8343 3.87498C15.8221 4.12802 15.8968 4.46469 16.0932 4.80494C16.2897 5.14519 16.5439 5.37823 16.7692 5.49413C17.0008 5.61333 17.1267 5.5792 17.1715 5.55333C17.4466 5.39453 17.7983 5.48879 17.9571 5.76386L18.2845 6.33101C18.4434 6.60609 18.3491 6.95783 18.0741 7.11666C18.0292 7.14253 17.9368 7.23442 17.9242 7.49465C17.9119 7.7477 17.9866 8.08437 18.1831 8.42461C18.3795 8.76487 18.6337 8.99791 18.859 9.11381C19.0907 9.233 19.2165 9.19888 19.2613 9.17301C19.5364 9.0142 19.8881 9.10846 20.0469 9.38354L20.3565 9.9198C20.5154 10.1949 20.4211 10.5466 20.146 10.7055L6.28411 18.7086C6.00902 18.8675 5.65727 18.7732 5.49845 18.4981L5.18884 17.9619C5.03001 17.6868 5.12426 17.335 5.39935 17.1762C5.44416 17.1503 5.53662 17.0584 5.54924 16.7982C5.56151 16.5452 5.4868 16.2085 5.29035 15.8682C5.0939 15.528 4.83969 15.2949 4.61441 15.179C4.38273 15.0598 4.25693 15.094 4.21212 15.1198C3.93703 15.2787 3.58528 15.1844 3.42645 14.9093L3.09901 14.3422C2.94019 14.0671 3.03444 13.7153 3.30953 13.5565C3.35434 13.5307 3.4468 13.4388 3.45942 13.1785C3.47169 12.9255 3.39698 12.5888 3.20052 12.2485C3.00408 11.9083 2.74986 11.6753 2.52459 11.5594C2.29291 11.4402 2.16711 11.4743 2.1223 11.5002C1.84721 11.659 1.49546 11.5647 1.33664 11.2897L1.15477 10.9747C1.07849 10.8426 1.05782 10.6856 1.0973 10.5382ZM3.05777 10.5401C3.50432 10.7718 3.90799 11.1733 4.19671 11.6734C4.48693 12.1761 4.63284 12.7295 4.60837 13.2342C4.59672 13.4745 4.54366 13.7232 4.43583 13.9485C4.68485 13.9677 4.92672 14.0461 5.14063 14.1562C5.58995 14.3873 5.99631 14.7904 6.28653 15.2931C6.57676 15.7958 6.72266 16.3492 6.69819 16.8539C6.69322 16.9564 6.68071 17.0605 6.65962 17.1636L18.6202 10.2581C18.5204 10.2248 18.424 10.1836 18.3327 10.1367C17.8834 9.90552 17.4771 9.50243 17.1869 8.99976C16.8967 8.4971 16.7508 7.94365 16.7752 7.43896C16.7869 7.19867 16.8399 6.95 16.9478 6.7247C16.6987 6.70545 16.4568 6.62706 16.2429 6.517C15.7936 6.28584 15.3873 5.88276 15.097 5.38009C14.8083 4.88001 14.6624 4.32966 14.685 3.82707L3.05777 10.5401Z" fill="white"/>
<path fill-rule="evenodd" clip-rule="evenodd" d="M7.695 10.6091C7.03019 10.9929 6.80241 11.843 7.18624 12.5078C7.57007 13.1726 8.42015 13.4004 9.08496 13.0166C9.74977 12.6328 9.97755 11.7827 9.59372 11.1179C9.2099 10.4531 8.35981 10.2253 7.695 10.6091ZM6.19005 13.083C5.48858 11.868 5.90486 10.3144 7.11985 9.61293C8.33484 8.91145 9.88844 9.32774 10.5899 10.5427C11.2914 11.7577 10.8751 13.3113 9.66011 14.0128C8.44512 14.7143 6.89152 14.298 6.19005 13.083Z" fill="white"/>
</svg>