<!-- Generated by IcoMoon.io -->
<svg version="1.1" xmlns="http://www.w3.org/2000/svg" width="20" height="20" viewBox="0 0 20 20">
<title>language</title>
<path d="M5.060 11.42l-2.2 5.48h1.060l0.4-0.94h2.56l0.4 0.94h1.060l-2.22-5.48zM4.66 15.060l0.96-2.3 0.96 2.3zM19.94 3.8c-0.064-2.039-1.701-3.676-3.734-3.74l-0.006-0c-2.060-0.060-4.16-0.060-6.2 0-2.039 0.064-3.676 1.701-3.74 3.734l-0 0.006c-0.060 1.6-0.060 3.2 0 4.78-1.2 0-2.36 0-3.5 0.060-1.457 0.082-2.618 1.243-2.7 2.692l-0 0.008c-0.060 2-0.060 3.9 0 5.88 0.082 1.457 1.243 2.618 2.692 2.7l0.007 0c0.98 0.080 2 0.080 2.96 0.080s1.96 0 2.94-0.080c1.457-0.082 2.618-1.243 2.7-2.693l0-0.008c0.060-1.14 0.060-2.3 0.040-3.44 0.56 0 1.14 0 1.7 0 1.040 0 2.080 0 3.1-0.080 2.039-0.064 3.676-1.701 3.74-3.734l0-0.006c0.060-2.020 0.060-4.1 0-6.16zM9.46 17.14c-0.039 0.47-0.41 0.841-0.877 0.88l-0.003 0c-1.9 0.1-3.8 0.1-5.72 0-0.47-0.039-0.841-0.41-0.88-0.877l-0-0.003c-0.1-1.9-0.1-3.8 0-5.72 0.048-0.461 0.417-0.823 0.877-0.86l0.003-0c0.96-0.080 1.9-0.080 2.86-0.080h0.6c0.271 1.647 1.553 2.929 3.178 3.197l0.022 0.003c0 1.14 0 2.3-0.080 3.46zM18.020 9.92c-0.042 1.032-0.868 1.858-1.896 1.9l-0.004 0c-2 0.1-4.040 0.1-6.060 0-1.032-0.042-1.858-0.868-1.9-1.896l-0-0.004c-0.080-2-0.080-4.040 0-6.040 0.042-1.032 0.868-1.858 1.896-1.9l0.004-0c1.020-0.080 2.020-0.080 3.040-0.080s2.020 0 3.020 0.080c1.032 0.042 1.858 0.868 1.9 1.896l0 0.004c0.080 2 0.080 4.040 0.020 6.040zM13.72 3.42h-1.24v1.44h-2.86v1.24h1.5v0.060c0.229 0.712 0.585 1.326 1.045 1.845l-0.005-0.005 0.060 0.080-0.080 0.060c-0.498 0.453-1.112 0.787-1.792 0.954l-0.028 0.006v1.28c1.056-0.194 1.976-0.677 2.703-1.362l-0.003 0.002 0.060-0.060 0.060 0.060c0.724 0.683 1.644 1.166 2.667 1.355l0.033 0.005v-1.24c-0.708-0.173-1.322-0.507-1.823-0.963l0.003 0.003-0.080-0.060 0.060-0.080c0.459-0.525 0.816-1.153 1.030-1.844l0.010-0.036v-0.060h1.54v-1.24h-2.86zM13.78 6.1l-0.080 0.12c-0.153 0.336-0.327 0.625-0.528 0.892l0.008-0.012-0.080 0.080-0.080-0.080c-0.201-0.256-0.381-0.544-0.528-0.852l-0.012-0.028-0.1-0.12z"></path>
</svg>
