<svg version="1.1" id="Layer_1" xmlns="http://www.w3.org/2000/svg" xmlns:xlink="http://www.w3.org/1999/xlink" x="0px" y="0px"
	 viewBox="0 0 20 20" style="enable-background:new 0 0 20 20;" xml:space="preserve">
<title>link</title>
<path d="M10.8,13.4c-0.5,0-1.1-0.1-1.6-0.3c-0.1,0-0.2,0-0.3,0.1L7.1,15c-0.6,0.6-1.5,0.6-2.1,0s-0.6-1.5,0-2.1l3.1-3.1
	c0.6-0.6,1.5-0.6,2.1,0c0,0,0,0,0,0c0.4,0.4,1,0.4,1.4,0c0.2-0.2,0.3-0.4,0.3-0.6c0-0.3-0.1-0.6-0.3-0.8C11.4,8.2,11.2,8,11,7.9
	c-0.6-0.4-1.2-0.6-1.9-0.6c-0.9,0-1.8,0.3-2.4,1l-3.1,3.1c-0.6,0.6-1,1.5-1,2.4c0,1.9,1.6,3.5,3.5,3.5c0.9,0,1.8-0.4,2.4-1l2.6-2.6
	c0-0.1,0.1-0.1,0.1-0.2C11.2,13.5,11.1,13.4,10.8,13.4L10.8,13.4z"/>
<path d="M11.5,3.6L8.9,6.2C8.8,6.2,8.8,6.3,8.8,6.4c0,0.1,0.1,0.2,0.2,0.2h0.1c0.5,0,1.1,0.1,1.6,0.3c0.1,0,0.2,0,0.3-0.1L12.9,5
	c0.6-0.6,1.5-0.6,2.1,0s0.6,1.5,0,2.1l-2.3,2.3l0,0l-0.8,0.8c-0.6,0.6-1.5,0.6-2.1,0c0,0,0,0,0,0c-0.4-0.4-1-0.4-1.4,0
	c-0.2,0.2-0.3,0.4-0.3,0.6c0,0.3,0.1,0.6,0.3,0.8c0.3,0.3,0.6,0.5,1,0.7l0.1,0.1l0.2,0.1l0.2,0.1H10l0.3,0.1h0.4h0.2H11h0.3h0.2h0.1
	h0.1l0,0c0.6-0.1,1.2-0.5,1.6-0.9l3.1-3.1c1.4-1.4,1.4-3.6,0-4.9C15,2.2,12.8,2.2,11.5,3.6z"/>
</svg>
