<!-- Generated by IcoMoon.io -->
<svg version="1.1" xmlns="http://www.w3.org/2000/svg" width="20" height="20" viewBox="0 0 20 20">
<title>loction-pin</title>
<path fill-rule="evenodd" clip-rule="evenodd" d="M8.50376 0.135614C5.50502 0.734541 3.10602 3.13025 2.60623 6.12488C2.00648 9.81826 4.00564 13.1123 7.10435 14.3102C8.10393 14.7095 9.00355 15.4082 9.50334 16.4064C9.70326 16.7059 9.80322 17.1052 10.0031 17.4047C10.1031 17.1052 10.303 16.7059 10.5029 16.4064C11.0027 15.4082 11.9023 14.8093 12.9019 14.3102C15.6008 13.2122 17.5 10.517 17.5 7.42255C17.5 2.9306 13.3018 -0.762775 8.50376 0.135614ZM10.0031 10.0179C8.60372 10.0179 7.50418 8.91987 7.50418 7.52237C7.50418 6.12488 8.60372 5.02685 10.0031 5.02685C11.4025 5.02685 12.5021 6.12488 12.5021 7.52237C12.5021 8.91987 11.4025 10.0179 10.0031 10.0179Z" fill="#1C1C1C"/>
<path d="M10.0033 20C11.1074 20 12.0025 19.5531 12.0025 19.0018C12.0025 18.4505 11.1074 18.0036 10.0033 18.0036C8.89921 18.0036 8.00415 18.4505 8.00415 19.0018C8.00415 19.5531 8.89921 20 10.0033 20Z" fill="#1C1C1C"/></svg>
