<!-- Generated by IcoMoon.io -->
<svg version="1.1" xmlns="http://www.w3.org/2000/svg" width="20" height="20" viewBox="0 0 20 20">
<title>max-arrow</title>
<path d="M20 0.72v5.7c-0.059 0.343-0.355 0.6-0.71 0.6s-0.651-0.258-0.709-0.596l-0.001-0.004v-3.98l-6.4 6.4c-0.13 0.131-0.311 0.212-0.51 0.212s-0.38-0.081-0.51-0.212l-0-0c-0.131-0.13-0.212-0.311-0.212-0.51s0.081-0.38 0.212-0.51l6.4-6.4h-3.98c-0 0-0 0-0 0-0.391 0-0.709-0.311-0.72-0.699l-0-0.001c0-0.398 0.322-0.72 0.72-0.72v0h5.7c0.102 0.001 0.198 0.023 0.285 0.062l-0.005-0.002c0.174 0.071 0.309 0.206 0.378 0.375l0.002 0.005c0.037 0.082 0.059 0.178 0.060 0.28v0zM7.82 11.18l-6.4 6.38v-3.98c0-0 0-0 0-0 0-0.391-0.311-0.709-0.699-0.72l-0.001-0c-0.398 0-0.72 0.322-0.72 0.72v0 5.7c0.001 0.102 0.023 0.198 0.062 0.285l-0.002-0.005c0.071 0.174 0.206 0.309 0.375 0.378l0.005 0.002c0.082 0.038 0.178 0.060 0.279 0.060 0 0 0.001 0 0.001 0h5.7c0.343-0.059 0.6-0.355 0.6-0.71s-0.258-0.651-0.596-0.709l-0.004-0.001h-3.98l6.4-6.4c0.131-0.131 0.211-0.311 0.211-0.51 0-0.398-0.323-0.721-0.721-0.721-0.199 0-0.379 0.081-0.51 0.211v0z"></path>
</svg>
