<!-- Generated by IcoMoon.io -->
<svg version="1.1" xmlns="http://www.w3.org/2000/svg" width="20" height="20" viewBox="0 0 20 20">
<title>max-frame</title>
<path d="M7.86 0.24v0.94c0 0.133-0.107 0.24-0.24 0.24v0h-4.040c-0.006-0-0.013-0-0.020-0-1.182 0-2.14 0.958-2.14 2.14 0 0.007 0 0.014 0 0.021v-0.001 4.040c0 0 0 0.001 0 0.001 0 0.126-0.096 0.229-0.219 0.239l-0.001 0h-0.96c-0.133 0-0.24-0.107-0.24-0.24v0-4.040c0-1.977 1.603-3.58 3.58-3.58v0h4.040c0.133 0 0.24 0.107 0.24 0.24v0zM7.62 18.58h-4.040c-0.006 0-0.013 0-0.020 0-1.182 0-2.14-0.958-2.14-2.14 0-0.007 0-0.014 0-0.021v0.001-4.040c0-0 0-0.001 0-0.001 0-0.126-0.096-0.229-0.219-0.239l-0.001-0h-0.96c-0.133 0-0.24 0.107-0.24 0.24v0 4.040c0 1.977 1.603 3.58 3.58 3.58v0h4.040c0.133 0 0.24-0.107 0.24-0.24v0-0.94c0-0.133-0.107-0.24-0.24-0.24v0zM19.76 12.14h-0.94c-0.133 0-0.24 0.107-0.24 0.24v0 4.040c0 0.006 0 0.013 0 0.020 0 1.182-0.958 2.14-2.14 2.14-0.007 0-0.014-0-0.021-0h-4.039c-0.133 0-0.24 0.107-0.24 0.24v0 0.94c0 0.133 0.107 0.24 0.24 0.24v0h4.040c1.977 0 3.58-1.603 3.58-3.58v0-4.040c0-0.133-0.107-0.24-0.24-0.24v0zM16.42 0h-4.040c-0.133 0-0.24 0.107-0.24 0.24v0 0.94c0 0.133 0.107 0.24 0.24 0.24v0h4.040c0.006-0 0.013-0 0.020-0 1.182 0 2.14 0.958 2.14 2.14 0 0.007-0 0.014-0 0.021v-0.001 4.040c0 0.133 0.107 0.24 0.24 0.24v0h0.94c0.133 0 0.24-0.107 0.24-0.24v0-4.040c0-1.977-1.603-3.58-3.58-3.58v0z"></path>
</svg>
