<svg width="20" height="20" viewBox="0 0 20 20" fill="none" xmlns="http://www.w3.org/2000/svg">
<g id="wasabicons / mic-announce-line" clip-path="url(#clip0)">
<path id="Vector" d="M9.94385 0.962695C9.8001 0.754883 9.5626 0.621289 9.29463 0.621289C9.26572 0.621289 9.23682 0.622852 9.20947 0.625977H9.2126C8.92978 0.654102 8.69307 0.82832 8.57744 1.07129L8.5751 1.07598L5.7251 7.37598C5.54932 7.73066 5.30244 8.02598 5.0001 8.25254L4.99385 8.25723L1.09385 11.201C0.807129 11.4189 0.623535 11.7604 0.623535 12.1439C0.623535 12.3939 0.700879 12.626 0.833691 12.8166L0.831348 12.8127L2.8376 15.7002C3.05088 15.9971 3.39541 16.1877 3.78447 16.1877C3.79463 16.1877 3.804 16.1877 3.81416 16.1877H3.8126C4.04932 16.1877 4.26963 16.1174 4.45478 15.9971L4.4501 16.0002L4.61885 15.8877C5.58603 17.2697 6.87744 18.3627 8.38603 19.0697L8.44385 19.0939C8.7915 19.2494 9.19541 19.3447 9.62041 19.3564H9.6251C9.64228 19.3572 9.66182 19.3572 9.68213 19.3572C9.97744 19.3572 10.2556 19.2807 10.4962 19.1455L10.4876 19.1502C11.2876 18.7822 11.8337 17.9877 11.8337 17.0658C11.8337 16.9744 11.8282 16.8846 11.8181 16.7963L11.8188 16.8072C11.7298 16.1713 11.247 15.6697 10.6282 15.5525L10.6188 15.551C10.1017 15.4479 9.65713 15.1877 9.32666 14.8221L9.3251 14.8197C9.33135 14.7424 9.33525 14.6518 9.33525 14.5604C9.33525 14.0408 9.21338 13.5494 8.99775 13.1135L9.00635 13.1322C9.1876 13.0572 9.39697 13.0041 9.61572 12.983L16.5251 12.4385C16.8157 12.4174 17.0603 12.2408 17.179 11.9932L17.1813 11.9885C17.2267 11.8916 17.2532 11.7783 17.2532 11.6596C17.2532 11.4877 17.1978 11.3283 17.1048 11.1986L17.1063 11.201L9.94385 0.962695ZM2.33135 12.2314L5.7626 9.64394L7.5251 12.1564L3.90635 14.5002L2.33135 12.2314ZM10.2813 17.0689C10.2829 17.0885 10.2845 17.1111 10.2845 17.1346C10.2845 17.158 10.2837 17.1807 10.2813 17.2033V17.2002C10.1743 17.4557 9.98369 17.6588 9.74385 17.7783L9.7376 17.7814C9.70166 17.7846 9.65947 17.7869 9.6165 17.7869C9.3415 17.7869 9.08525 17.708 8.86885 17.5721L8.87432 17.5752C7.679 16.9689 6.68994 16.1127 5.94697 15.0682L5.93057 15.0439L7.65557 13.9002C7.729 14.101 7.77197 14.3338 7.77197 14.576C7.77197 14.6814 7.76416 14.7854 7.74853 14.8869L7.7501 14.876C7.65635 15.701 8.96885 16.8072 10.2813 17.0697V17.0689ZM9.5126 11.4064C9.30713 11.4275 9.12197 11.4604 8.9415 11.5057L8.96885 11.5002L6.86885 8.50019C6.9626 8.35019 7.05635 8.18144 7.1501 8.03144L9.4376 2.96895L15.0438 10.9752L9.5126 11.4064ZM14.2001 5.8002C14.3423 6.00332 14.5743 6.13457 14.8368 6.1377H14.8376C14.8423 6.1377 14.847 6.1377 14.8524 6.1377C15.0149 6.1377 15.1657 6.08848 15.2907 6.00488L15.2876 6.00645L16.2438 5.3127C16.5188 5.18613 16.7056 4.91269 16.7056 4.59551C16.7056 4.16035 16.3532 3.80801 15.9181 3.80801C15.7009 3.80801 15.5048 3.89551 15.3626 4.0377L14.4063 4.69395C14.1946 4.8377 14.0571 5.07676 14.0571 5.34785C14.0571 5.51738 14.1103 5.67441 14.2017 5.80254L14.2001 5.8002ZM18.1001 7.35645L16.8063 7.52519C16.4251 7.58457 16.1376 7.91035 16.1376 8.30332C16.1376 8.35254 16.1423 8.40176 16.1509 8.44863L16.1501 8.44395C16.2149 8.8166 16.5337 9.09629 16.9181 9.10019H17.0313L18.3063 8.91269C18.6931 8.85879 18.9876 8.52988 18.9876 8.13223C18.9876 8.09629 18.9853 8.06191 18.9806 8.02754L18.9813 8.03144C18.9274 7.64473 18.5985 7.35019 18.2009 7.35019C18.1649 7.35019 18.1306 7.35254 18.0962 7.35723L18.1001 7.35645ZM12.5126 3.2502C12.6188 3.30723 12.7462 3.3416 12.8806 3.3416C13.1845 3.3416 13.4485 3.16973 13.5798 2.91738L13.5821 2.9127L14.1821 1.76895C14.286 1.63691 14.3485 1.46816 14.3485 1.28457C14.3485 0.849414 13.9962 0.49707 13.561 0.49707C13.2142 0.49707 12.9204 0.721289 12.8149 1.03223L12.8134 1.0377L12.1946 2.18145C12.1345 2.29004 12.0993 2.41895 12.0993 2.55723C12.0993 2.85566 12.2649 3.11504 12.5095 3.24863L12.5134 3.25098L12.5126 3.2502Z" fill="white"/>
</g>
<defs>
<clipPath id="clip0">
<rect width="18.75" height="18.75" fill="white" transform="translate(0.625 0.625)"/>
</clipPath>
</defs>
</svg>
