<!-- Generated by IcoMoon.io -->
<svg version="1.1" xmlns="http://www.w3.org/2000/svg" width="20" height="20" viewBox="0 0 20 20">
<title>min-frame</title>
<path d="M6.66 0h0.96c0.133 0 0.24 0.107 0.24 0.24v0 4.040c0 1.977-1.603 3.58-3.58 3.58v0h-4.040c-0.133 0-0.24-0.107-0.24-0.24v0-0.96c0-0.133 0.107-0.24 0.24-0.24v0h4.040c1.182 0 2.14-0.958 2.14-2.14v0-4.040c0-0.133 0.107-0.24 0.24-0.24v0zM0.24 12.14h4.040c1.977 0 3.58 1.603 3.58 3.58v0 4.040c0 0.133-0.107 0.24-0.24 0.24v0h-0.96c-0.133 0-0.24-0.107-0.24-0.24v0-4.040c0-1.182-0.958-2.14-2.14-2.14v0h-4.040c-0.133 0-0.24-0.107-0.24-0.24v0-0.96c0-0.133 0.107-0.24 0.24-0.24v0zM15.72 12.14h4.040c0.133 0 0.24 0.107 0.24 0.24v0 0.96c0 0.133-0.107 0.24-0.24 0.24v0h-4.040c-1.182 0-2.14 0.958-2.14 2.14v0 4.040c0 0.133-0.107 0.24-0.24 0.24v0h-0.96c-0.133 0-0.24-0.107-0.24-0.24v0-4.040c0-1.977 1.603-3.58 3.58-3.58v0zM12.38 0h0.96c0.133 0 0.24 0.107 0.24 0.24v0 4.040c0 1.182 0.958 2.14 2.14 2.14v0h4.040c0.133 0 0.24 0.107 0.24 0.24v0 0.96c0 0.133-0.107 0.24-0.24 0.24v0h-4.040c-1.977 0-3.58-1.603-3.58-3.58v0-4.040c0-0.133 0.107-0.24 0.24-0.24v0z"></path>
</svg>
