<!-- Generated by IcoMoon.io -->
<svg version="1.1" xmlns="http://www.w3.org/2000/svg" width="20" height="20" viewBox="0 0 20 20">
<title>min-arrow</title>
<path d="M19.8 1.22l-6.4 6.4h3.98c0.343 0.059 0.6 0.355 0.6 0.71s-0.257 0.651-0.596 0.709l-0.004 0.001h-5.72c-0.292-0.013-0.537-0.198-0.638-0.455l-0.002-0.005c-0.037-0.082-0.059-0.178-0.060-0.28v-5.72c0.059-0.343 0.355-0.6 0.71-0.6s0.651 0.257 0.709 0.596l0.001 0.004v4.020l6.4-6.4c0.131-0.131 0.311-0.211 0.51-0.211 0.398 0 0.721 0.323 0.721 0.721 0 0.199-0.081 0.379-0.211 0.51v0zM8.58 11c-0.071-0.026-0.154-0.041-0.24-0.041-0.014 0-0.028 0-0.042 0.001l0.002-0h-5.72c-0.343 0.059-0.6 0.355-0.6 0.71s0.257 0.651 0.596 0.709l0.004 0.001h4.040l-6.4 6.4c-0.131 0.13-0.212 0.311-0.212 0.51s0.081 0.38 0.212 0.51l0 0c0.129 0.125 0.306 0.202 0.5 0.202s0.371-0.077 0.5-0.202l-0 0 6.4-6.42v4c0.059 0.343 0.355 0.6 0.71 0.6s0.651-0.258 0.709-0.596l0.001-0.004v-5.72c0-0.001 0-0.002 0-0.003 0-0.085-0.015-0.166-0.042-0.242l0.002 0.005c-0.070-0.197-0.223-0.35-0.415-0.419l-0.005-0.001z"></path>
</svg>
