<svg width="20" height="20" viewBox="0 0 20 20" fill="none" xmlns="http://www.w3.org/2000/svg">
<path d="M18.4 2.50003C17.4585 1.50768 16.174 0.911643 14.8083 0.833364H14.5917C13.7296 0.854225 12.8826 1.06434 12.1107 1.44884C11.3389 1.83333 10.6609 2.38281 10.125 3.05836L9.99999 3.20836L9.87499 3.05836C9.31873 2.35153 8.60656 1.7829 7.79412 1.39692C6.98168 1.01094 6.09099 0.81806 5.19165 0.833364C3.82638 0.913296 2.5425 1.50906 1.59999 2.50003C-0.683346 5.00003 0.149987 8.7917 0.341654 9.53336C2.02499 16.0584 9.45832 19 9.77499 19.1667C9.91978 19.2226 10.0802 19.2226 10.225 19.1667C10.5417 19.0417 17.975 16.1 19.6583 9.57503C19.85 8.7917 20.6833 5.00003 18.4 2.50003ZM18.45 9.1667C17.0833 14.5167 11.225 17.325 9.99999 17.8667C8.77499 17.325 2.91665 14.5334 1.54999 9.2167C1.39165 8.5917 0.674987 5.35836 2.49999 3.33336C3.22514 2.58328 4.20804 2.13651 5.24999 2.08336H5.43332C6.10798 2.10862 6.76905 2.28048 7.37059 2.587C7.97213 2.89353 8.4997 3.32737 8.91665 3.85836L9.51665 4.58336C9.57611 4.65358 9.65014 4.70999 9.73361 4.74869C9.81708 4.78738 9.90798 4.80743 9.99999 4.80743C10.092 4.80743 10.1829 4.78738 10.2664 4.74869C10.3498 4.70999 10.4239 4.65358 10.4833 4.58336L11.0833 3.85836C11.5041 3.32547 12.0359 2.89064 12.6418 2.58411C13.2477 2.27758 13.9131 2.1067 14.5917 2.08336H14.75C15.7923 2.13485 16.7758 2.58189 17.5 3.33336C19.325 5.35836 18.6083 8.5917 18.45 9.2167V9.1667Z" fill="#1C1C1C"/>
<path d="M12.5251 9.08472H10.5001L11.0417 5.75139C11.0442 5.68886 11.0281 5.627 10.9955 5.57361C10.9629 5.52021 10.9152 5.47768 10.8584 5.45139C10.7879 5.41835 10.7087 5.40862 10.6323 5.4236C10.5559 5.43858 10.4862 5.4775 10.4334 5.53472L6.96672 10.1847C6.93405 10.2357 6.91669 10.295 6.91669 10.3556C6.91669 10.4161 6.93405 10.4754 6.96672 10.5264C7.00237 10.5918 7.05558 10.646 7.12037 10.6828C7.18515 10.7196 7.25893 10.7376 7.33339 10.7347H9.37505L8.54172 14.2431C8.52719 14.3083 8.53489 14.3766 8.56357 14.4369C8.59226 14.4973 8.64029 14.5464 8.70005 14.5764C8.75499 14.6019 8.81451 14.6161 8.87505 14.6181C8.92714 14.6179 8.9786 14.6067 9.02602 14.5852C9.07344 14.5636 9.11572 14.5322 9.15005 14.4931L12.8917 9.64305C12.9261 9.59117 12.9445 9.5303 12.9445 9.46805C12.9445 9.4058 12.9261 9.34493 12.8917 9.29305C12.8577 9.22628 12.8048 9.17096 12.7396 9.13393C12.6744 9.0969 12.5998 9.07979 12.5251 9.08472V9.08472Z" fill="#1C1C1C"/>
</svg>
