<svg version="1.1" id="Layer_1" xmlns="http://www.w3.org/2000/svg" xmlns:xlink="http://www.w3.org/1999/xlink" x="0px" y="0px"
	 viewBox="0 0 20 20" style="enable-background:new 0 0 20 20;" xml:space="preserve">
<g>
	<path d="M7.5,9.1C8.4,9.1,9,8.4,9,7.6C9,6.7,8.4,6,7.5,6C6.7,6,6,6.7,6,7.6C6,8.4,6.7,9.1,7.5,9.1z"/>
	<path d="M12.5,11.1c-0.8,0-1.5,0.7-1.5,1.5c0,0.8,0.7,1.5,1.5,1.5c0.8,0,1.5-0.7,1.5-1.5C14,11.7,13.4,11.1,12.5,11.1z"/>
	<path d="M19.1,7.8l-0.7-0.7C18.1,6.8,18,6.5,18,6.2v-1C18,3.4,16.6,2,14.8,2h-0.9c-0.3,0-0.6-0.2-0.8-0.3L12.4,1
		c-0.8-0.7-1.6-1-2.4-1C9.2,0,8.4,0.3,7.8,0.9L7,1.7C6.8,1.9,6.5,2,6.2,2h-1C3.4,2,2,3.4,2,5.2v1c0,0.3-0.2,0.6-0.3,0.8L0.9,7.8
		c-1.3,1.3-1.3,3.3,0,4.5L1.7,13C1.9,13.3,2,13.5,2,13.8v1c0,1.8,1.4,3.2,3.2,3.2h1c0.3,0,0.6,0.2,0.8,0.3l0.7,0.7
		c1.3,1.2,3.3,1.2,4.5,0l0.7-0.7c0.2-0.3,0.5-0.3,0.8-0.3h1c1.8,0,3.2-1.4,3.2-3.2v-0.9c0-0.3,0.2-0.6,0.3-0.8l0.7-0.7
		C20.3,11.1,20.3,9.1,19.1,7.8z M17.9,11.2l-0.8,0.7c-0.5,0.6-0.8,1.3-0.8,2v1c0,0.8-0.7,1.5-1.5,1.5h-1c-0.8,0-1.5,0.3-2,0.8
		l-0.7,0.7c-0.3,0.4-0.7,0.6-1.2,0.6c-0.4,0-0.8-0.2-1.1-0.4l-0.7-0.7c-0.5-0.5-1.3-0.8-2-0.8H5.2c-0.8,0-1.5-0.7-1.5-1.5v-1
		c0-0.8-0.3-1.5-0.8-2l-0.7-0.7c-0.6-0.6-0.6-1.6,0-2.2l0.7-0.7c0.5-0.5,0.8-1.3,0.8-2V5.2c0-0.8,0.7-1.5,1.5-1.5h1
		c0.8,0,1.5-0.3,2-0.8l0.7-0.7c0.6-0.6,1.6-0.6,2.2,0l0.7,0.7c0.5,0.5,1.3,0.8,2,0.8h1c0.8,0,1.5,0.7,1.5,1.5v1c0,0.8,0.3,1.5,0.8,2
		l0.7,0.7C18.5,9.6,18.5,10.6,17.9,11.2z"/>
	<path d="M12.4,6.3l-6,6c-0.4,0.4-0.4,1,0,1.4c0.2,0.2,0.4,0.3,0.7,0.3c0.3,0,0.5-0.1,0.7-0.3l6-6c0.3-0.4,0.3-1.1,0-1.5
		C13.4,5.9,12.8,5.9,12.4,6.3z"/>
</g>
</svg>
