<svg width="20" height="20" viewBox="0 0 20 20" fill="none" xmlns="http://www.w3.org/2000/svg">
<g clip-path="url(#clip0)">
<path d="M17.7 3.54H14.58V2.92C14.58 1.65 13.55 0.619995 12.28 0.619995H7.72C6.45 0.619995 5.42 1.65 5.42 2.92V3.54H2.3C1.03 3.54 0 4.56999 0 5.83999V17.08C0 18.35 1.03 19.38 2.3 19.38H17.7C18.97 19.38 20 18.35 20 17.08V5.83999C20 4.56999 18.97 3.54 17.7 3.54V3.54ZM6.66 2.92C6.67083 2.34333 7.14167 1.88 7.72 1.88H12.28C12.8583 1.88 13.3283 2.34333 13.34 2.91916V2.92V3.54H6.66V2.92ZM6.04 4.8H17.7C17.71 4.8 17.7208 4.79916 17.7325 4.79916C17.9608 4.79916 18.1725 4.87416 18.3425 5.00166L18.34 5L15.98 9.99999C15.73 10.5017 15.2208 10.84 14.6333 10.84C14.6292 10.84 14.6242 10.84 14.62 10.84H13.1208C12.8983 9.97166 12.1233 9.34083 11.2008 9.33999H8.80083C7.88417 9.34249 7.115 9.97416 6.90333 10.8267L6.90083 10.84H5.38083C5.37667 10.84 5.3725 10.84 5.3675 10.84C4.77917 10.84 4.27 10.5017 4.02417 10.0083L4.02 9.99999L1.66 5C1.82917 4.86583 2.04417 4.78333 2.27917 4.78H2.28L6.04 4.8ZM11.94 11.46C11.94 11.8575 11.6175 12.18 11.22 12.18C11.2133 12.18 11.2058 12.18 11.1992 12.18H11.2H8.8C8.79833 12.18 8.79583 12.18 8.79333 12.18C8.385 12.18 8.05333 11.8483 8.05333 11.44C8.05333 11.405 8.05583 11.37 8.06083 11.3358L8.06 11.34C8.06 10.9425 8.3825 10.62 8.78 10.62C8.78667 10.62 8.79417 10.62 8.80083 10.62H8.8H11.2C11.2008 10.62 11.2017 10.62 11.2025 10.62C11.6108 10.62 11.9425 10.9517 11.9425 11.36C11.9425 11.3808 11.9417 11.4017 11.94 11.4225V11.42V11.46ZM17.7 18.16H2.3H2.29917C1.725 18.16 1.25917 17.6942 1.25917 17.12C1.25917 17.1058 1.25917 17.0917 1.26 17.0783V17.08V7.08L2.92 10.58C3.3775 11.52 4.32417 12.1567 5.42 12.16H6.96C7.24917 12.9108 7.9625 13.435 8.79917 13.44H11.2C11.2008 13.44 11.2008 13.44 11.2017 13.44C12.04 13.44 12.755 12.9133 13.0358 12.1733L13.04 12.16H14.62C15.7158 12.1567 16.6625 11.52 17.1125 10.5967L17.12 10.58L18.78 7.08V17.08V17.0808C18.78 17.655 18.3142 18.1208 17.74 18.1208C17.7258 18.1208 17.7117 18.1208 17.6983 18.12H17.7V18.16Z" fill="#1C1C1C"/>
</g>
<defs>
<clipPath id="clip0">
<rect width="20" height="20" fill="white"/>
</clipPath>
</defs>
</svg>
