<svg
  viewBox="0 0 20 20"
  xmlns="http://www.w3.org/2000/svg"
>
  <path
    d="M17.3331 5.15C17.3224 4.99454 17.2525 4.84909 17.1378 4.74366C17.023 4.63822 16.8722 4.58083 16.7164 4.58333H13.9914V3.99167C13.9914 2.93301 13.5709 1.91771 12.8223 1.16913C12.0737 0.420549 11.0584 0 9.99975 0C8.94109 0 7.92579 0.420549 7.17721 1.16913C6.42863 1.91771 6.00808 2.93301 6.00808 3.99167V4.58333H3.28308C3.12727 4.58083 2.97645 4.63822 2.86171 4.74366C2.74697 4.84909 2.67707 4.99454 2.66641 5.15L1.46641 18.1167C1.44928 18.3494 1.48122 18.5832 1.56017 18.8028C1.63913 19.0225 1.76333 19.2231 1.92475 19.3917C2.09571 19.5828 2.30504 19.7358 2.53908 19.8406C2.77313 19.9454 3.02663 19.9997 3.28308 20H16.7164C16.9729 19.9997 17.2264 19.9454 17.4604 19.8406C17.6945 19.7358 17.9038 19.5828 18.0747 19.3917C18.2362 19.2231 18.3604 19.0225 18.4393 18.8028C18.5183 18.5832 18.5502 18.3494 18.5331 18.1167L17.3331 5.15ZM7.25808 3.99167C7.25808 3.26453 7.54693 2.56718 8.06109 2.05302C8.57526 1.53885 9.27261 1.25 9.99975 1.25C10.7269 1.25 11.4242 1.53885 11.9384 2.05302C12.4526 2.56718 12.7414 3.26453 12.7414 3.99167V4.58333H7.25808V3.99167ZM3.85808 5.83333H6.00808V7.11667C6.00808 7.28243 6.07393 7.4414 6.19114 7.55861C6.30835 7.67582 6.46732 7.74167 6.63308 7.74167C6.79884 7.74167 6.95781 7.67582 7.07502 7.55861C7.19223 7.4414 7.25808 7.28243 7.25808 7.11667V5.83333H12.7414V7.11667C12.7414 7.28243 12.8073 7.4414 12.9245 7.55861C13.0417 7.67582 13.2007 7.74167 13.3664 7.74167C13.5322 7.74167 13.6911 7.67582 13.8084 7.55861C13.9256 7.4414 13.9914 7.28243 13.9914 7.11667V5.83333H16.1414L16.9747 14.5833H3.04975L3.85808 5.83333ZM17.1914 18.55C17.137 18.6116 17.0704 18.6612 16.9958 18.6956C16.9212 18.7301 16.8402 18.7486 16.7581 18.75H3.28308C3.20092 18.7486 3.11996 18.7301 3.04535 18.6956C2.97074 18.6612 2.90413 18.6116 2.84975 18.55C2.80598 18.5095 2.77087 18.4606 2.74652 18.4062C2.72217 18.3517 2.7091 18.2929 2.70808 18.2333L2.93308 15.8333H17.0997L17.3247 18.2333C17.3196 18.2955 17.3013 18.3558 17.2712 18.4104C17.241 18.465 17.1996 18.5126 17.1497 18.55H17.1914Z"
    fill="black"
  />
</svg>
