<!-- Generated by IcoMoon.io -->
<svg version="1.1" xmlns="http://www.w3.org/2000/svg" width="20" height="20" viewBox="0 0 20 20">
<title>order</title>
<path d="M19.28 9.52h-0.42c-0.283-1.034-0.918-1.889-1.764-2.45l-0.016-0.010 1.2-2.98c0.061-0.104 0.098-0.229 0.098-0.362 0-0.398-0.322-0.72-0.72-0.72-0.334 0-0.616 0.228-0.697 0.537l-0.001 0.005-1.18 2.98h-0.080c-0.46-1.42-2.42-6.52-4.98-6.52-2.691 0.056-5.279 0.316-7.802 0.765l0.302-0.045c-2.26 0.080-3.22 2.7-3.22 4.040 0 0.398 0.322 0.72 0.72 0.72v0c0.48 0 1.54-0.1 2.26-0.18-0.34 5.26-2.9 12.46-2.98 12.56-0.025 0.069-0.040 0.149-0.040 0.232 0 0.18 0.068 0.345 0.18 0.469l-0.001-0.001c0.133 0.155 0.329 0.252 0.547 0.252 0.047 0 0.093-0.004 0.137-0.013l-0.005 0.001 3.54-0.7c0.52 0.36 1.78 1.2 2.64 1.74h0.14c0.070 0.033 0.152 0.055 0.238 0.060l0.002 0h0.060c1.666-0.198 3.139-0.479 4.575-0.852l-0.235 0.052c0.253 0.472 0.738 0.79 1.299 0.8l0.001 0h3.82c0.773-0.007 1.407-0.599 1.48-1.354l0-0.006 0.6-7.62s0 0 0 0h0.28c0.398 0 0.72-0.322 0.72-0.72s-0.322-0.72-0.72-0.72v0zM15 7.86c1.080 0.019 1.998 0.694 2.374 1.642l0.006 0.018h-4.76c0.382-0.966 1.3-1.641 2.378-1.66l0.002-0zM14.18 6.52c-1.494 0.369-2.651 1.513-3.034 2.971l-0.006 0.029h-0.42c-0.398 0-0.72 0.322-0.72 0.72s0.322 0.72 0.72 0.72v0h0.28s0 0 0 0l0.54 6.8c-1.28 0.3-2.46 0.54-3.42 0.68 0.14-2.94 0.28-12.72-3.080-16.54 1.692-0.26 3.67-0.426 5.681-0.459l0.039-0.001c0.76-0.020 2.26 1.94 3.42 5.080zM2.86 2.26c0.102 0.475 0.167 1.026 0.18 1.59l0 0.010-1.48 0.14c0.16-0.758 0.639-1.381 1.287-1.733l0.013-0.007zM4.52 16.66h-0.12l-2.6 0.48c0.86-2.68 2.84-9.3 2.6-13.76 2.040 3.14 2.56 10.14 2.34 14.64l-1.82-1.24c-0.106-0.075-0.238-0.12-0.38-0.12-0.007 0-0.014 0-0.021 0l0.001-0zM16.96 18.52cv0.060l-3.88-0.060-0.6-7.56h5.14z"></path>
</svg>
