<!-- Generated by IcoMoon.io -->
<svg version="1.1" xmlns="http://www.w3.org/2000/svg" width="20" height="20" viewBox="0 0 20 20">
<title>pickup</title>
<path d="M20 16.92l-2.74-16.080c0.002-0.009 0.003-0.019 0.003-0.030s-0.001-0.021-0.003-0.031l0 0.001s0-0.040 0-0.080 0-0.1 0-0.12v0c-0.023-0.055-0.065-0.097-0.119-0.119l-0.001-0.001c0.001-0.012 0.002-0.026 0.002-0.040s-0.001-0.028-0.002-0.042l0 0.002s0 0 0 0v0l-0.18-0.1-0.080-0.080-0.16-0.080h-0.12c-0.086-0.047-0.185-0.088-0.29-0.117l-0.010-0.003h-12.48c-0.601 0.009-1.126 0.332-1.416 0.812l-0.004 0.008-1.44 2.5c-0.178 0.291-0.283 0.643-0.283 1.020 0 0.996 0.735 1.82 1.692 1.959l0.011 0.001-2.34 10.52c-0.033 0.156-0.051 0.336-0.051 0.52 0 1.469 1.191 2.66 2.66 2.66 0.004 0 0.008 0 0.012-0h14.679c0.003 0 0.007 0 0.010 0 1.48 0 2.68-1.2 2.68-2.68 0-0.141-0.011-0.28-0.032-0.415l0.002 0.015zM9.66 14.34h-4.38c-0.552 0-1-0.448-1-1s0.448-1 1-1v0h4.38c0.552 0 1 0.448 1 1s-0.448 1-1 1v0zM10.34 11h-4.34c-0.552 0-1-0.448-1-1s0.448-1 1-1v0h4.34c0.552 0 1 0.448 1 1s-0.448 1-1 1v0zM12.74 3.94c-0.176 0.243-0.46 0.4-0.78 0.4-0 0-0 0-0 0h-9.28l1.36-2.34h10.24zM17.84 17.76c-0.118 0.147-0.298 0.24-0.5 0.24-0 0-0 0-0 0h-2.040c-0 0-0.001 0-0.001 0-0.53 0-0.96-0.43-0.96-0.96 0-0.071 0.008-0.14 0.022-0.206l-0.001 0.006 1.84-9.66 1.76 10.040c0.011 0.043 0.017 0.093 0.017 0.145 0 0.15-0.051 0.288-0.138 0.397l0.001-0.001z"></path>
</svg>
