<svg width="20" height="20" viewBox="0 0 20 20" fill="none" xmlns="http://www.w3.org/2000/svg">
<g clip-path="url(#clip0)">
<path d="M10 0C4.5 0 0 4.5 0 10C0 14.0625 2.4375 17.625 6 19.1875C6 18.5 6 17.625 6.1875 16.875C6.375 16.0625 7.4375 11.4375 7.4375 11.4375C7.4375 11.4375 7.125 10.8125 7.125 9.875C7.125 8.375 8 7.3125 9.0625 7.3125C9.9375 7.3125 10.375 8 10.375 8.8125C10.375 9.75 9.8125 11.0625 9.5 12.375C9.25 13.4375 10.0625 14.3125 11.0625 14.3125C12.9375 14.3125 14.25 11.875 14.25 9C14.25 6.8125 12.75 5.1875 10.0625 5.1875C7 5.1875 5.125 7.4375 5.125 10C5.125 10.875 5.375 11.5 5.8125 11.9375C6 12.1875 6.0625 12.25 6 12.5C5.9375 12.6875 5.8125 13.125 5.75 13.3125C5.6875 13.5625 5.5 13.625 5.25 13.5625C3.875 13 3.1875 11.4375 3.1875 9.75C3.1875 6.9375 5.5625 3.5 10.3125 3.5C14.125 3.5 16.625 6.25 16.625 9.25C16.625 13.1875 14.4375 16.125 11.25 16.125C10.1875 16.125 9.125 15.5625 8.8125 14.875C8.8125 14.875 8.25 17.1875 8.125 17.625C7.875 18.375 7.5 19.1875 7.125 19.75C8 20 9 20.1875 9.9375 20.1875C15.4375 20.1875 19.9375 15.6875 19.9375 10.1875C19.9375 4.6875 15.5 0 10 0Z" fill="black"/>
</g>
<defs>
<clipPath id="clip0">
<rect width="20" height="20" fill="white"/>
</clipPath>
</defs>
</svg>
