<svg width="20" height="20" viewBox="0 0 20 20" fill="none" xmlns="http://www.w3.org/2000/svg">
<path d="M1.5 10C1.5 5.3125 5.3125 1.5 10 1.5C14.6875 1.5 18.5 5.3125 18.5 10C18.5 14.6875 14.6875 18.5 10 18.5C5.3125 18.5 1.5 14.6875 1.5 10ZM0 10C0 15.5 4.5 20 10 20C15.5 20 20 15.5 20 10C20 4.5 15.5 0 10 0C4.5 0 0 4.5 0 10ZM14 9.25H10.75V6C10.75 5.5625 10.4375 5.25 10 5.25C9.5625 5.25 9.25 5.5625 9.25 6V9.25H6C5.5625 9.25 5.25 9.5625 5.25 10C5.25 10.4375 5.5625 10.75 6 10.75H9.25V14C9.25 14.375 9.5625 14.75 10 14.75C10.4375 14.75 10.75 14.4375 10.75 14V10.75H14C14.4375 10.75 14.75 10.4375 14.75 10C14.75 9.5625 14.4375 9.25 14 9.25Z" fill="black"/>
</svg>
