<svg width="20" height="20" viewBox="0 0 20 20" fill="none" xmlns="http://www.w3.org/2000/svg">
<g clip-path="url(#clip0)">
<path d="M20 1.25V4.79167C20 5.01268 19.9122 5.22464 19.7559 5.38092C19.5996 5.5372 19.3877 5.625 19.1667 5.625C18.9457 5.625 18.7337 5.5372 18.5774 5.38092C18.4211 5.22464 18.3333 5.01268 18.3333 4.79167V1.66667H15.2083C14.9873 1.66667 14.7754 1.57887 14.6191 1.42259C14.4628 1.26631 14.375 1.05435 14.375 0.833333C14.375 0.61232 14.4628 0.400358 14.6191 0.244078C14.7754 0.0877974 14.9873 0 15.2083 0L18.75 0C19.0815 0 19.3995 0.131696 19.6339 0.366117C19.8683 0.600537 20 0.918479 20 1.25ZM0.833333 5.625C1.05435 5.625 1.26631 5.5372 1.42259 5.38092C1.57887 5.22464 1.66667 5.01268 1.66667 4.79167V1.66667H4.79167C5.01268 1.66667 5.22464 1.57887 5.38092 1.42259C5.5372 1.26631 5.625 1.05435 5.625 0.833333C5.625 0.61232 5.5372 0.400358 5.38092 0.244078C5.22464 0.0877974 5.01268 0 4.79167 0L1.25 0C0.918479 0 0.600537 0.131696 0.366117 0.366117C0.131696 0.600537 0 0.918479 0 1.25L0 4.79167C0 5.01268 0.0877974 5.22464 0.244078 5.38092C0.400358 5.5372 0.61232 5.625 0.833333 5.625ZM3.95833 18.3333H1.66667V15.2083C1.66667 14.9873 1.57887 14.7754 1.42259 14.6191C1.26631 14.4628 1.05435 14.375 0.833333 14.375C0.61232 14.375 0.400358 14.4628 0.244078 14.6191C0.0877974 14.7754 0 14.9873 0 15.2083L0 18.75C0 19.0815 0.131696 19.3995 0.366117 19.6339C0.600537 19.8683 0.918479 20 1.25 20H3.95833C4.17935 20 4.39131 19.9122 4.54759 19.7559C4.70387 19.5996 4.79167 19.3877 4.79167 19.1667C4.79167 18.9457 4.70387 18.7337 4.54759 18.5774C4.39131 18.4211 4.17935 18.3333 3.95833 18.3333ZM19.1667 14.375C18.9457 14.375 18.7337 14.4628 18.5774 14.6191C18.4211 14.7754 18.3333 14.9873 18.3333 15.2083V18.3333H15.2083C14.9873 18.3333 14.7754 18.4211 14.6191 18.5774C14.4628 18.7337 14.375 18.9457 14.375 19.1667C14.375 19.3877 14.4628 19.5996 14.6191 19.7559C14.7754 19.9122 14.9873 20 15.2083 20H18.75C19.0815 20 19.3995 19.8683 19.6339 19.6339C19.8683 19.3995 20 19.0815 20 18.75V15.2083C20 14.9873 19.9122 14.7754 19.7559 14.6191C19.5996 14.4628 19.3877 14.375 19.1667 14.375ZM9.16667 4.16667V7.91667C9.16667 8.24819 9.03497 8.56613 8.80055 8.80055C8.56613 9.03497 8.24819 9.16667 7.91667 9.16667H4.16667C3.83515 9.16667 3.5172 9.03497 3.28278 8.80055C3.04836 8.56613 2.91667 8.24819 2.91667 7.91667V4.16667C2.91667 3.83515 3.04836 3.5172 3.28278 3.28278C3.5172 3.04836 3.83515 2.91667 4.16667 2.91667H7.91667C8.24819 2.91667 8.56613 3.04836 8.80055 3.28278C9.03497 3.5172 9.16667 3.83515 9.16667 4.16667ZM7.5 4.58333H4.58333V7.5H7.5V4.58333ZM12.0833 9.16667C11.7518 9.16667 11.4339 9.03497 11.1994 8.80055C10.965 8.56613 10.8333 8.24819 10.8333 7.91667V4.16667C10.8333 3.83515 10.965 3.5172 11.1994 3.28278C11.4339 3.04836 11.7518 2.91667 12.0833 2.91667H15.8333C16.1649 2.91667 16.4828 3.04836 16.7172 3.28278C16.9516 3.5172 17.0833 3.83515 17.0833 4.16667V7.91667C17.0833 8.24819 16.9516 8.56613 16.7172 8.80055C16.4828 9.03497 16.1649 9.16667 15.8333 9.16667H12.0833ZM12.5 7.5H15.4167V4.58333H12.5V7.5ZM9.16667 12.0833V15.8333C9.16667 16.1649 9.03497 16.4828 8.80055 16.7172C8.56613 16.9516 8.24819 17.0833 7.91667 17.0833H4.16667C3.83515 17.0833 3.5172 16.9516 3.28278 16.7172C3.04836 16.4828 2.91667 16.1649 2.91667 15.8333V12.0833C2.91667 11.7518 3.04836 11.4339 3.28278 11.1994C3.5172 10.965 3.83515 10.8333 4.16667 10.8333H7.91667C8.24819 10.8333 8.56613 10.965 8.80055 11.1994C9.03497 11.4339 9.16667 11.7518 9.16667 12.0833ZM7.5 12.5H4.58333V15.4167H7.5V12.5ZM15 16.25H12.9167C12.5851 16.25 12.2672 16.1183 12.0328 15.8839C11.7984 15.6495 11.6667 15.3315 11.6667 15V12.9167C11.6667 12.5851 11.7984 12.2672 12.0328 12.0328C12.2672 11.7984 12.5851 11.6667 12.9167 11.6667H15C15.3315 11.6667 15.6495 11.7984 15.8839 12.0328C16.1183 12.2672 16.25 12.5851 16.25 12.9167V15C16.25 15.3315 16.1183 15.6495 15.8839 15.8839C15.6495 16.1183 15.3315 16.25 15 16.25ZM14.5833 13.3333H13.3333V14.5833H14.5833V13.3333Z" fill="black"/>
</g>
<defs>
<clipPath id="clip0">
<rect width="20" height="20" fill="white"/>
</clipPath>
</defs>
</svg>
