<!-- Generated by IcoMoon.io -->
<svg version="1.1" xmlns="http://www.w3.org/2000/svg" width="20" height="20" viewBox="0 0 20 20">
<title>radio-active</title>
<path d="M10 1.42c4.739 0 8.58 3.841 8.58 8.58s-3.841 8.58-8.58 8.58c-4.739 0-8.58-3.841-8.58-8.58v0c0-4.739 3.841-8.58 8.58-8.58v0M10 0c-5.523 0-10 4.477-10 10s4.477 10 10 10c5.523 0 10-4.477 10-10v0c0-5.523-4.477-10-10-10v0zM10 4.28c-3.159 0-5.72 2.561-5.72 5.72s2.561 5.72 5.72 5.72c3.159 0 5.72-2.561 5.72-5.72v0c0-3.159-2.561-5.72-5.72-5.72v0z"></path>
</svg>
