<!-- Generated by IcoMoon.io -->
<svg version="1.1" xmlns="http://www.w3.org/2000/svg" width="20" height="20" viewBox="0 0 20 20">
<title>search-thick</title>
<path d="M19.24 17.9l-3.5-3.52c1.145-1.445 1.836-3.294 1.836-5.304 0-4.739-3.841-8.58-8.58-8.58s-8.58 3.841-8.58 8.58c0 4.739 3.841 8.58 8.58 8.58 2.055 0 3.942-0.723 5.419-1.928l-0.016 0.012 3.5 3.5c0.173 0.169 0.409 0.272 0.67 0.272s0.497-0.104 0.67-0.273l-0 0c0.169-0.173 0.272-0.409 0.272-0.67s-0.104-0.497-0.273-0.67l0 0zM2.38 9.040c0.011-3.67 2.989-6.64 6.66-6.64 3.678 0 6.66 2.982 6.66 6.66s-2.982 6.66-6.66 6.66v0c0 0-0 0-0 0-3.678 0-6.66-2.982-6.66-6.66 0-0.007 0-0.014 0-0.021v0.001z"></path>
</svg>
