<svg width="20" height="20" viewBox="0 0 20 20" fill="none" xmlns="http://www.w3.org/2000/svg">
<path d="M6.94368 8.47233C7.78768 8.47233 8.47135 7.78866 8.47135 6.94466C8.47135 6.10133 7.78768 5.41699 6.94368 5.41699C6.09968 5.41699 5.41602 6.10133 5.41602 6.94466C5.41602 7.78866 6.09968 8.47233 6.94368 8.47233Z" fill="#1C1C1C"/>
<path d="M13.055 8.47233C13.899 8.47233 14.5827 7.78866 14.5827 6.94466C14.5827 6.10133 13.899 5.41699 13.055 5.41699C12.211 5.41699 11.5273 6.10133 11.5273 6.94466C11.527 7.78866 12.2107 8.47233 13.055 8.47233Z" fill="#1C1C1C"/>
<path d="M14.583 12.2915H5.41634C4.99401 12.2915 4.65234 12.6338 4.65234 13.0555C4.65234 13.4772 4.99368 13.8195 5.41634 13.8195H14.583C15.0053 13.8195 15.347 13.4772 15.347 13.0555C15.347 12.6338 15.0053 12.2915 14.583 12.2915Z" fill="#1C1C1C"/>
<path d="M10 0C4.486 0 0 4.486 0 10C0 15.514 4.486 20 10 20C15.514 20 20 15.514 20 10C20 4.486 15.514 0 10 0ZM10 19C5.03733 19 1 14.9627 1 10C1 5.03733 5.03733 1 10 1C14.9627 1 19 5.03733 19 10C19 14.9627 14.9627 19 10 19Z" fill="#1C1C1C"/>
</svg>
