<svg width="20" height="20" viewBox="0 0 20 20" fill="none" xmlns="http://www.w3.org/2000/svg">
<path d="M10 20C4.486 20 0 15.514 0 10C0 4.486 4.486 0 10 0C15.514 0 20 4.486 20 10C20 15.514 15.514 20 10 20ZM10 1C5.03733 1 1 5.03733 1 10C1 14.9627 5.03733 19 10 19C14.9627 19 19 14.9627 19 10C19 5.03733 14.9627 1 10 1Z" fill="#1C1C1C"/>
<path d="M11.0332 6.15052C11.1875 5.54218 11.7205 5.09618 12.3475 5.19552C12.8122 5.26918 13.1422 5.60818 13.2538 6.03652C13.4922 5.66352 13.9365 5.44718 14.4022 5.52085C15.0285 5.62018 15.3975 6.20918 15.3565 6.83518C15.3565 6.83518 15.3632 6.99318 15.2522 7.25885C15.1008 7.61918 14.8322 7.91852 14.5012 8.12752L12.7512 9.20985L11.4478 7.64385C11.1968 7.34285 11.0342 6.97518 11.0022 6.58485C10.9782 6.29851 11.0332 6.15052 11.0332 6.15052Z" fill="#1C1C1C"/>
<path d="M4.68333 6.78923C4.653 6.16256 5.03266 5.5799 5.66099 5.49157C6.12699 5.42623 6.54166 5.6539 6.77366 6.0309C6.89266 5.60457 7.25432 5.26757 7.72099 5.2019C8.34899 5.11357 8.874 5.5689 9.018 6.1799C9.018 6.1799 9.07066 6.32923 9.04233 6.61557C9.003 7.00457 8.83367 7.36923 8.57833 7.6659L7.22133 9.21257L5.51699 8.0959C5.18899 7.88123 4.92566 7.57723 4.78132 7.21357C4.67399 6.94723 4.68333 6.78923 4.68333 6.78923Z" fill="#1C1C1C"/>
<path d="M9.99967 16.9165C7.15101 16.9165 4.65234 14.4178 4.65234 11.5692C4.65234 11.1475 4.99367 10.8052 5.41634 10.8052C5.83901 10.8052 6.18034 11.1475 6.18034 11.5692C6.18034 13.5682 8.00067 15.3885 9.99967 15.3885C11.9987 15.3885 13.819 13.5682 13.819 11.5692C13.819 11.1475 14.1603 10.8052 14.583 10.8052C15.0057 10.8052 15.347 11.1475 15.347 11.5692C15.347 14.4178 12.8483 16.9165 9.99967 16.9165Z" fill="#1C1C1C"/>
</svg>
