<svg width="20" height="20" viewBox="0 0 20 20" fill="none" xmlns="http://www.w3.org/2000/svg">
<path d="M10 0C4.48567 0 0 4.48567 0 10C0 15.5143 4.48567 20 10 20C15.5133 20 20 15.5143 20 10C20 4.48567 15.5133 0 10 0ZM13.0553 5.41667C13.8987 5.41667 14.583 6.10033 14.583 6.94433C14.583 7.78767 13.8987 8.472 13.0553 8.472C12.2113 8.472 11.5277 7.78767 11.5277 6.94433C11.5277 6.10033 12.2113 5.41667 13.0553 5.41667ZM6.94433 5.41667C7.78767 5.41667 8.472 6.10033 8.472 6.94433C8.472 7.78767 7.78767 8.472 6.94433 8.472C6.10033 8.472 5.41667 7.78767 5.41667 6.94433C5.41667 6.10033 6.10033 5.41667 6.94433 5.41667ZM14.5687 14.5313C14.176 14.6827 13.733 14.4847 13.5823 14.0907C13.0057 12.582 11.532 11.5277 9.99967 11.5277C8.46567 11.5277 6.99233 12.582 6.41533 14.092C6.29933 14.3967 6.009 14.584 5.702 14.584C5.611 14.584 5.51933 14.5673 5.43 14.5327C5.03567 14.383 4.838 13.9413 4.98833 13.5473C5.78567 11.459 7.84633 10 10 10C12.152 10 14.212 11.4583 15.0097 13.5453C15.16 13.9393 14.963 14.381 14.5687 14.5313Z" fill="#1C1C1C"/>
</svg>
