<svg
  xmlns="http://www.w3.org/2000/svg"
  viewBox="0 0 20 20"
  width="20"
  height="20"
>
  <path
    d="M9.9,14.8l-2.3,2.3V9c0-0.5-0.4-0.8-0.8-0.8S5.9,8.5,5.9,9v8.2l-2.3-2.3c0,0,0,0,0,0c-0.3-0.3-0.9-0.3-1.2,0
    c-0.3,0.3-0.3,0.8,0,1.2l3.7,3.7c0.3,0.3,0.8,0.3,1.2,0l3.7-3.7c0.2-0.2,0.2-0.4,0.2-0.6c0-0.2-0.1-0.4-0.2-0.6
    C10.8,14.5,10.3,14.5,9.9,14.8z"
  />
  <path
    d="M17.6,4l-3.7-3.7c-0.3-0.3-0.8-0.3-1.2,0L8.9,4C8.7,4.1,8.6,4.4,8.7,4.6c0,0.2,0.1,0.4,0.2,0.6c0.3,0.3,0.8,0.3,1.2,0
    l2.3-2.3V11c0,0.5,0.4,0.8,0.8,0.8c0.5,0,0.8-0.4,0.8-0.8V2.9l2.3,2.3c0,0,0,0,0,0c0.3,0.3,0.9,0.3,1.2,0C17.9,4.8,17.9,4.3,17.6,4
    z"
  />
</svg>
