<!-- Generated by IcoMoon.io -->
<svg version="1.1" xmlns="http://www.w3.org/2000/svg" width="20" height="20" viewBox="0 0 20 20">
<title>star-half</title>
<path d="M19.62 7.78l-6.38-0.96-2.92-6.2c-0.060-0.12-0.18-0.2-0.32-0.2s-0.26 0.080-0.32 0.2v0l-2.92 6.18-6.38 0.96c-0.22 0.040-0.38 0.22-0.38 0.44 0 0.12 0.040 0.24 0.12 0.32v0l4.64 4.76-1.1 6.66c0 0.020 0 0.040 0 0.080 0 0.24 0.2 0.44 0.44 0.44 0.1 0 0.16-0.020 0.24-0.060v0l5.7-3.12 5.68 3.12c0.060 0.040 0.14 0.060 0.22 0.060 0.24 0 0.44-0.2 0.44-0.44 0-0.040 0-0.060 0-0.080v0l-1.1-6.66 4.64-4.76c0.060-0.080 0.1-0.18 0.1-0.3 0-0.24-0.16-0.42-0.4-0.44v0zM14.22 12.26l-0.5 0.54 0.1 0.7 0.78 4.66-3.9-2.14-0.7-0.36v-12.38l1.9 4.12 0.32 0.7 0.76 0.1 4.5 0.68z"></path>
</svg>
