<!-- Generated by IcoMoon.io -->
<svg version="1.1" xmlns="http://www.w3.org/2000/svg" width="20" height="20" viewBox="0 0 20 20">
<title>star-add</title>
<path d="M17.52 8.92l-3.3 3.34-0.5 0.54 0.1 0.7 0.78 4.66-3.9-2.14-0.7-0.36-0.7 0.38-3.88 2.1 0.76-4.66 0.1-0.68-0.5-0.52-3.3-3.38 5.26-0.8 0.32-0.7 1.94-4.12 0.84 1.78c0.12 0.24 0.36 0.38 0.64 0.38 0.12 0 0.22-0.020 0.32-0.060v0c0.2-0.12 0.36-0.36 0.36-0.62 0-0.12-0.040-0.24-0.080-0.34v0l-1.82-3.8c-0.060-0.12-0.18-0.2-0.32-0.2s-0.26 0.080-0.32 0.2v0l-2.86 6.18-6.38 0.96c-0.22 0.040-0.38 0.22-0.38 0.44 0 0.12 0.040 0.24 0.12 0.32v0l4.64 4.76-1.1 6.66c0 0.020 0 0.040 0 0.080 0 0.24 0.2 0.44 0.44 0.44 0.080 0 0.16-0.020 0.22-0.060v0l5.72-3.12 5.72 3.12c0.060 0.040 0.12 0.060 0.2 0.060 0.26 0 0.46-0.2 0.46-0.44 0-0.040 0-0.060 0-0.080v0l-1.1-6.66 3.22-3.34c0.16-0.14 0.28-0.34 0.28-0.56 0-0.4-0.32-0.72-0.7-0.72-0.26 0-0.46 0.14-0.6 0.32v0zM17.86 5.66h-1.66v-1.68c0-0.26-0.22-0.46-0.48-0.46v0h-0.48c-0.26 0-0.48 0.2-0.48 0.46v0 1.68h-1.66c-0.26 0-0.48 0.2-0.48 0.46v0 0.48c0 0.26 0.22 0.48 0.48 0.48v0h1.66v1.66c0 0.28 0.22 0.48 0.48 0.48v0h0.48c0.26 0 0.48-0.2 0.48-0.48v0-1.66h1.66c0.26 0 0.48-0.22 0.48-0.48v0-0.48c0-0.26-0.22-0.46-0.48-0.46v0z"></path>
</svg>
