<!-- Generated by IcoMoon.io -->
<svg version="1.1" xmlns="http://www.w3.org/2000/svg" width="20" height="20" viewBox="0 0 20 20">
<title>stream-z</title>
<path d="M17.14 0.42h-14.28c-1.58 0-2.86 1.28-2.86 2.86v0 14.28c0 1.58 1.28 2.86 2.86 2.86v0h14.28c1.58 0 2.86-1.28 2.86-2.86v0-14.28c0-1.58-1.28-2.86-2.86-2.86v0zM18.58 17.56c0 0.78-0.64 1.42-1.44 1.42v0h-14.28c-0.8 0-1.44-0.64-1.44-1.42v0-14.28c0-0.8 0.64-1.44 1.44-1.44v0h14.28c0.8 0 1.44 0.64 1.44 1.44v0zM16.66 12.8c0 0.38-0.32 0.7-0.7 0.72h-11.92c-0.38 0-0.7-0.32-0.7-0.72s0.32-0.72 0.7-0.72v0h11.92c0.38 0 0.7 0.32 0.7 0.72v0zM13.82 16.12c-0.020 0.4-0.34 0.72-0.72 0.72h-9.060c-0.38 0-0.7-0.32-0.7-0.72s0.32-0.7 0.7-0.7v0h9.060c0.38 0 0.7 0.32 0.72 0.7v0zM4.18 9.94c0.22 0.12 0.5 0.2 0.78 0.2 0.020 0 0.020 0 0.020 0v0c0.020 0 0.040 0 0.080 0 0.3 0 0.56-0.080 0.8-0.2v0l2.92-1.82c0.44-0.3 0.74-0.8 0.74-1.38s-0.3-1.080-0.74-1.36v-0.020l-2.92-1.84c-0.26-0.16-0.56-0.26-0.88-0.26-0.92 0-1.64 0.74-1.64 1.64 0 0 0 0.020 0 0.020v0 3.62c0 0.6 0.34 1.12 0.84 1.4v0zM4.76 4.92c0-0.020 0-0.020 0-0.020 0-0.080 0.040-0.14 0.1-0.16v-0.020c0.020 0 0.040 0 0.060 0s0.040 0 0.060 0.020v-0.020c0 0 0.020 0 0.040 0s0.040 0 0.060 0.020v-0.020l2.92 1.86c0.060 0.020 0.1 0.080 0.1 0.16 0 0 0 0 0 0v0c0 0 0 0 0 0.020 0 0.060-0.040 0.12-0.1 0.16v0l-2.92 1.8c-0.040 0.020-0.060 0.020-0.1 0.020s-0.080 0-0.12-0.020v0c-0.060-0.040-0.1-0.1-0.1-0.18 0 0 0 0 0 0v0zM12.38 6.6c0-0.92 0.74-1.66 1.66-1.66s1.68 0.74 1.68 1.66c0 0.92-0.76 1.68-1.68 1.68v0c-0.92 0-1.66-0.76-1.66-1.68v0z"></path>
</svg>
