<!-- Generated by IcoMoon.io -->
<svg version="1.1" xmlns="http://www.w3.org/2000/svg" width="20" height="20" viewBox="0 0 20 20">
<title>twitter-fill</title>
<path d="M9.72 6.82l0.040 0.7-0.72-0.080c-2.64-0.34-4.94-1.48-6.88-3.38l-0.96-0.96-0.24 0.7c-0.52 1.56-0.2 3.22 0.9 4.32 0.56 0.62 0.44 0.7-0.56 0.34-0.34-0.12-0.64-0.2-0.68-0.16-0.1 0.1 0.24 1.44 0.52 1.96 0.38 0.72 1.14 1.44 1.98 1.86l0.72 0.34-0.84 0.020c-0.82 0-0.84 0-0.76 0.32 0.28 0.94 1.44 1.94 2.7 2.38l0.9 0.32-0.78 0.46c-1.16 0.68-2.52 1.060-3.88 1.080-0.64 0.020-1.18 0.080-1.18 0.12 0 0.14 1.76 0.96 2.8 1.28 3.060 0.96 6.72 0.54 9.48-1.080 1.94-1.16 3.9-3.44 4.8-5.66 0.5-1.18 0.98-3.34 0.98-4.38 0-0.66 0.040-0.76 0.86-1.56 0.48-0.46 0.92-0.98 1-1.12 0.16-0.28 0.14-0.28-0.6-0.040-1.22 0.44-1.4 0.38-0.8-0.26 0.46-0.48 1-1.32 1-1.56 0-0.060-0.22 0.020-0.48 0.16s-0.84 0.36-1.26 0.48l-0.78 0.26-0.72-0.48c-0.38-0.26-0.94-0.56-1.22-0.64-0.74-0.22-1.86-0.18-2.52 0.060-1.82 0.64-2.96 2.34-2.82 4.2z"></path>
</svg>
