<!-- Generated by IcoMoon.io -->
<svg version="1.1" xmlns="http://www.w3.org/2000/svg" width="20" height="20" viewBox="0 0 20 20">
<title>unlock-history</title>
<path d="M6.46 13.54c0.174 0.174 0.414 0.282 0.68 0.282s0.506-0.108 0.68-0.282l2.86-2.86c0.173-0.174 0.28-0.413 0.28-0.678 0-0.001 0-0.002 0-0.002v0-5.72c0-0.53-0.43-0.96-0.96-0.96s-0.96 0.43-0.96 0.96v0 5.32l-2.58 2.58c-0.174 0.174-0.282 0.414-0.282 0.68s0.108 0.506 0.282 0.68l0 0zM10 0h-0.26c-0.467 0.070-0.822 0.469-0.822 0.95s0.354 0.88 0.817 0.949l0.005 0.001h0.24c0.010-0 0.021-0 0.033-0 4.474 0 8.1 3.626 8.1 8.1s-3.626 8.1-8.1 8.1c-2.18 0-4.159-0.861-5.615-2.262l0.003 0.002-0.16-0.14c-0.166-0.142-0.384-0.228-0.621-0.228-0.53 0-0.96 0.43-0.96 0.96 0 0.223 0.076 0.427 0.203 0.59l-0.002-0.002 0.18 0.2c1.793 1.721 4.232 2.78 6.919 2.78 5.523 0 10-4.477 10-10 0-5.508-4.454-9.977-9.957-10h-0.002zM1.020 9.9c0.002 0 0.003 0 0.005 0 0.495 0 0.902-0.375 0.954-0.856l0-0.004 0.040-0.42c0.009-0.048 0.013-0.103 0.013-0.16 0-0.532-0.431-0.963-0.963-0.963-0.476 0-0.871 0.345-0.949 0.798l-0.001 0.006c0 0.18-0.060 0.34-0.080 0.52-0.003 0.030-0.005 0.065-0.005 0.101 0 0.518 0.41 0.94 0.924 0.959l0.002 0zM5.64 3.020c0.005 0 0.010 0 0.016 0 0.164 0 0.317-0.045 0.448-0.122l-0.004 0.002 0.38-0.2c0.316-0.162 0.528-0.485 0.528-0.858 0-0.146-0.033-0.284-0.091-0.408l0.002 0.006c-0.154-0.338-0.488-0.569-0.877-0.569-0.146 0-0.285 0.033-0.409 0.091l0.006-0.002c-0.16 0.060-0.3 0.16-0.46 0.24-0.32 0.16-0.537 0.486-0.537 0.862 0 0.168 0.043 0.326 0.119 0.463l-0.002-0.005c0.166 0.301 0.481 0.501 0.843 0.501 0.013 0 0.026-0 0.039-0.001l-0.002 0zM3.28 5.48l0.26-0.34c0.092-0.145 0.147-0.321 0.147-0.511 0-0.53-0.43-0.96-0.96-0.96-0.279 0-0.531 0.119-0.707 0.31l-0.001 0.001-0.32 0.42c-0.099 0.149-0.158 0.331-0.158 0.528 0 0.328 0.164 0.617 0.415 0.79l0.003 0.002c0.149 0.1 0.333 0.16 0.531 0.16 0.003 0 0.007-0 0.010-0h-0.001c0 0 0 0 0 0 0.32 0 0.603-0.157 0.778-0.397l0.002-0.003zM2.28 12.44c-0.155-0.335-0.488-0.563-0.874-0.563-0.53 0-0.96 0.43-0.96 0.96 0 0.057 0.005 0.114 0.015 0.168l-0.001-0.006 0.16 0.5c0.141 0.365 0.49 0.62 0.898 0.62 0.001 0 0.002 0 0.002 0h-0c0.020 0.002 0.043 0.003 0.066 0.003 0.113 0 0.221-0.023 0.32-0.065l-0.005 0.002c0.363-0.142 0.616-0.49 0.616-0.896 0-0.116-0.021-0.227-0.058-0.33l0.002 0.007c-0.060-0.109-0.12-0.241-0.172-0.377l-0.008-0.023z"></path>
</svg>
