<svg width="20" height="20" viewBox="0 0 20 20" fill="none" xmlns="http://www.w3.org/2000/svg">
<path d="M10 0C4.5 0 0 4.5 0 10C0 15.5 4.5 20 10 20C15.5 20 20 15.5 20 10C20 4.5 15.5 0 10 0ZM14.5625 10.5C14.25 10.8125 13.8125 10.8125 13.5 10.5L10.75 7.75V13.9375C10.75 14.3125 10.4375 14.6875 10 14.6875C9.5625 14.6875 9.25 14.375 9.25 13.9375V7.75L6.5 10.5C6.1875 10.8125 5.75 10.8125 5.4375 10.5C5.125 10.1875 5.125 9.75 5.4375 9.4375L9.4375 5.4375C9.5 5.375 9.5625 5.3125 9.6875 5.25C9.75 5.1875 9.875 5.1875 9.9375 5.1875C10.125 5.1875 10.3125 5.25 10.5 5.4375L14.5 9.4375C14.8125 9.75 14.8125 10.25 14.5625 10.5Z" fill="black"/>
</svg>
