<svg width="20" height="20" viewBox="0 0 20 20" fill="none" xmlns="http://www.w3.org/2000/svg">
<g clip-path="url(#clip0_4570_72976)">
<path d="M10.1833 8.90529e-05C8.89896 -0.00539316 7.6261 0.242295 6.4375 0.728996C5.2489 1.2157 4.16787 1.93187 3.2562 2.83658C2.34452 3.74128 1.62008 4.81679 1.12428 6.00162C0.628478 7.18645 0.371035 8.45738 0.366667 9.74176C0.367276 11.5062 0.854593 13.2364 1.775 14.7418L0 20.0001L5.43333 18.2751C6.89036 19.0696 8.52375 19.4851 10.1833 19.4834C12.767 19.4834 15.2448 18.4571 17.0717 16.6302C18.8986 14.8032 19.925 12.3254 19.925 9.74176C19.925 7.15811 18.8986 4.68027 17.0717 2.85336C15.2448 1.02644 12.767 8.90529e-05 10.1833 8.90529e-05V8.90529e-05ZM10.1833 17.9334C8.57071 17.9323 6.99304 17.4634 5.64167 16.5834L2.5 17.5834L3.5 14.5501C2.47503 13.1566 1.9231 11.4716 1.925 9.74176C1.91179 8.10564 2.38488 6.50247 3.28426 5.13565C4.18363 3.76883 5.46874 2.69997 6.97654 2.06468C8.48434 1.4294 10.1469 1.25631 11.7532 1.56739C13.3595 1.87847 14.8372 2.6597 15.9989 3.81195C17.1605 4.9642 17.9537 6.43554 18.2778 8.03929C18.6019 9.64304 18.4423 11.3069 17.8192 12.8198C17.1962 14.3327 16.1378 15.6265 14.7783 16.5369C13.4188 17.4473 11.8195 17.9334 10.1833 17.9334V17.9334Z" fill="#1C1C1C"/>
<path d="M14.6749 11.708C14.4416 11.5914 13.2499 11.008 13.0082 10.933C12.7666 10.858 12.6249 10.808 12.4666 11.0497C12.3082 11.2914 11.8416 11.8247 11.7082 11.9914C11.5749 12.158 11.4249 12.1664 11.1832 12.0497C10.4816 11.7575 9.83591 11.3458 9.2749 10.833C8.74699 10.3476 8.29475 9.78579 7.93324 9.16637C7.79157 8.93304 7.93324 8.7997 8.04157 8.68304C8.1499 8.56637 8.28324 8.40804 8.3999 8.26637C8.49607 8.14312 8.5772 8.00884 8.64157 7.86637C8.67658 7.80251 8.69493 7.73086 8.69493 7.65804C8.69493 7.58521 8.67658 7.51356 8.64157 7.4497C8.58324 7.3247 8.10824 6.1497 7.8999 5.6747C7.69157 5.1997 7.4999 5.31637 7.33324 5.31637H6.8749C6.75313 5.31989 6.63336 5.34832 6.523 5.39992C6.41264 5.45152 6.31402 5.52518 6.23324 5.61637C5.96357 5.87223 5.75019 6.18148 5.60671 6.5244C5.46323 6.86732 5.3928 7.23638 5.3999 7.60804C5.4736 8.52019 5.81576 9.3901 6.38324 10.108C7.38747 11.6721 8.81103 12.9224 10.4916 13.7164C12.9416 14.6664 12.9416 14.3497 13.3832 14.308C13.7213 14.2369 14.0403 14.0945 14.319 13.8905C14.5978 13.6864 14.8299 13.4254 14.9999 13.1247C15.156 12.7657 15.2052 12.3693 15.1416 11.983C15.0055 11.8617 14.847 11.7683 14.6749 11.708V11.708Z" fill="#1C1C1C"/>
</g>
<defs>
<clipPath id="clip0_4570_72976">
<rect width="20" height="20" fill="white"/>
</clipPath>
</defs>
</svg>
